<svg xmlns="http://www.w3.org/2000/svg" xmlns:xlink="http://www.w3.org/1999/xlink" width="500" zoomAndPan="magnify" viewBox="0 0 375 374.999991" height="500" preserveAspectRatio="xMidYMid meet" version="1.0"><defs><clipPath id="04c2076671"><path d="M 188 58.429688 L 337.5 58.429688 L 337.5 170.929688 L 188 170.929688 Z M 188 58.429688 " clip-rule="nonzero"/></clipPath></defs><g clip-path="url(#04c2076671)"><path fill="#dad8d6" d="M 304.9375 170.03125 C 303.625 163.875 303.613281 163.773438 304.035156 162.757812 C 304.265625 162.199219 304.757812 161.46875 305.125 161.136719 C 305.996094 160.347656 305.96875 159.867188 305.003906 158.988281 C 303.835938 157.921875 301.941406 157.4375 299.5 157.578125 C 296.949219 157.722656 296.480469 157.359375 298.261719 156.617188 C 299.238281 156.207031 300.035156 156.152344 301.699219 156.375 C 302.890625 156.539062 304.714844 156.644531 305.757812 156.613281 C 308.289062 156.535156 308.992188 155.71875 309.59375 152.148438 C 309.863281 150.53125 310.277344 149.273438 310.640625 148.960938 C 310.96875 148.671875 312.582031 147.929688 314.222656 147.308594 C 315.863281 146.6875 317.359375 146.035156 317.542969 145.859375 C 317.996094 145.421875 319.140625 145.453125 319.140625 145.898438 C 319.140625 146.097656 318.902344 146.351562 318.613281 146.464844 C 318.328125 146.574219 318.171875 146.796875 318.269531 146.953125 C 318.367188 147.113281 318.140625 147.339844 317.765625 147.460938 C 316.570312 147.839844 314.484375 150.441406 314.699219 151.28125 C 315.339844 153.792969 315.339844 153.976562 314.644531 155.15625 C 314.25 155.820312 314.023438 156.457031 314.136719 156.570312 C 314.25 156.683594 315.257812 156.773438 316.378906 156.773438 C 318.042969 156.773438 318.378906 156.871094 318.214844 157.300781 C 318.101562 157.589844 318.1875 157.828125 318.398438 157.828125 C 318.613281 157.828125 318.789062 157.988281 318.789062 158.179688 C 318.789062 158.371094 318.40625 158.53125 317.941406 158.53125 C 317.472656 158.53125 316.328125 158.875 315.394531 159.292969 C 314.460938 159.714844 312.839844 160.148438 311.789062 160.257812 L 309.882812 160.460938 L 308.546875 162.921875 C 307.8125 164.273438 307.207031 165.804688 307.207031 166.324219 C 307.203125 166.84375 307.042969 167.367188 306.847656 167.484375 C 306.65625 167.605469 306.496094 168.007812 306.496094 168.382812 C 306.496094 168.757812 306.339844 169.066406 306.148438 169.066406 C 305.953125 169.066406 305.796875 169.460938 305.796875 169.945312 C 305.796875 171.035156 305.164062 171.101562 304.9375 170.03125 Z M 243.992188 160.167969 C 243.992188 160.097656 244.78125 159.550781 245.746094 158.949219 C 247.726562 157.71875 247.90625 157.304688 246.59375 156.976562 C 246.097656 156.851562 245.101562 156.359375 244.386719 155.886719 C 243.46875 155.277344 242.207031 154.910156 240.113281 154.636719 C 236.054688 154.109375 235.832031 153.996094 237.632812 153.378906 C 238.871094 152.957031 239.464844 152.929688 240.617188 153.246094 C 242.746094 153.832031 247.421875 153.855469 249.386719 153.289062 C 251.75 152.609375 252.203125 151.503906 252.105469 146.617188 C 252.023438 142.53125 252.167969 142.023438 254.425781 138.355469 C 255.253906 137.011719 255.933594 135.589844 255.933594 135.195312 C 255.9375 134.800781 256.09375 134.238281 256.28125 133.949219 C 256.523438 133.574219 256.621094 133.972656 256.625 135.332031 C 256.632812 137.125 256.667969 137.203125 257.183594 136.5625 C 257.707031 135.917969 257.726562 135.941406 257.542969 137.023438 C 257.402344 137.867188 257.484375 138.164062 257.855469 138.164062 C 258.722656 138.164062 258.886719 140.457031 258.195312 143.019531 C 257.207031 146.679688 257.148438 149.71875 258.011719 152.550781 L 258.746094 154.96875 L 260.699219 155.214844 C 261.777344 155.347656 263.394531 155.363281 264.296875 155.246094 C 265.796875 155.054688 265.878906 155.082031 265.257812 155.554688 C 264.882812 155.839844 264.773438 156.074219 265.015625 156.074219 C 265.253906 156.074219 265.355469 156.230469 265.234375 156.425781 C 265.117188 156.617188 264.515625 156.777344 263.898438 156.777344 C 263.28125 156.777344 261.667969 157.105469 260.316406 157.503906 C 258.019531 158.1875 253.222656 158.503906 252.449219 158.023438 C 252.277344 157.917969 251.128906 158.304688 249.894531 158.882812 C 248.042969 159.75 243.992188 160.632812 243.992188 160.167969 Z M 293.632812 156.050781 C 296.6875 153.261719 296.722656 153.0625 294.398438 151.996094 C 292.847656 151.285156 291.910156 151.105469 289.816406 151.117188 C 288.367188 151.125 287.183594 151.011719 287.183594 150.863281 C 287.183594 150.117188 289.804688 149.699219 292.992188 149.9375 C 297.363281 150.265625 299.472656 149.957031 299.472656 148.992188 C 299.472656 148.597656 299.0625 147.785156 298.558594 147.1875 C 297.410156 145.824219 297.582031 144.246094 299.101562 142.207031 C 299.679688 141.433594 300.773438 139.921875 301.53125 138.851562 C 302.289062 137.78125 303.171875 136.6875 303.496094 136.421875 C 304.03125 135.976562 304.058594 136.089844 303.828125 137.808594 C 303.59375 139.601562 303.613281 139.667969 304.335938 139.480469 C 305.210938 139.25 305.292969 139.625 304.601562 140.722656 C 303.683594 142.175781 303.640625 142.917969 304.417969 143.8125 C 305.367188 144.902344 305.164062 146.792969 303.890625 148.714844 C 303.394531 149.46875 302.984375 150.234375 302.984375 150.410156 C 302.984375 150.871094 303.882812 151.152344 306.132812 151.386719 C 307.6875 151.546875 308.117188 151.726562 308.15625 152.214844 C 308.195312 152.742188 307.992188 152.808594 306.835938 152.65625 C 306.03125 152.546875 304.75 152.707031 303.722656 153.042969 C 302.761719 153.359375 301.679688 153.613281 301.320312 153.613281 C 300.960938 153.613281 300.039062 154.070312 299.277344 154.625 C 297.292969 156.074219 294.601562 157.371094 293.007812 157.644531 L 291.632812 157.882812 Z M 228.808594 155.371094 C 228.699219 155.082031 228.40625 154.054688 228.160156 153.089844 C 227.914062 152.121094 227.273438 150.347656 226.738281 149.140625 C 225.242188 145.777344 225.171875 144.878906 226.226562 142.652344 C 226.726562 141.59375 227.136719 140.585938 227.132812 140.414062 C 227.132812 139.871094 223.0625 138.867188 220.875 138.867188 C 219.730469 138.867188 218.285156 138.765625 217.660156 138.640625 L 216.527344 138.410156 L 217.671875 137.929688 C 218.542969 137.5625 219.804688 137.503906 222.910156 137.679688 C 225.820312 137.84375 227.226562 137.789062 227.789062 137.488281 C 228.238281 137.246094 229.078125 135.980469 229.738281 134.542969 C 231.101562 131.582031 231.917969 130.75 234.429688 129.765625 C 235.445312 129.363281 237.0625 128.640625 238.015625 128.15625 C 240.097656 127.101562 240.824219 127.015625 240.007812 127.921875 C 239.6875 128.273438 239.507812 128.648438 239.613281 128.75 C 239.714844 128.855469 239.097656 129.632812 238.242188 130.480469 C 237.132812 131.574219 236.605469 132.425781 236.417969 133.421875 C 236.277344 134.195312 235.929688 135.179688 235.648438 135.613281 C 235.058594 136.519531 234.925781 136.4375 238.296875 137.285156 C 239.597656 137.609375 241.007812 137.746094 241.722656 137.609375 C 242.699219 137.425781 242.9375 137.492188 242.9375 137.949219 C 242.9375 138.261719 242.976562 138.621094 243.023438 138.753906 C 243.074219 138.882812 242.324219 139.035156 241.355469 139.09375 C 240.390625 139.148438 238.136719 139.546875 236.34375 139.980469 L 233.089844 140.761719 L 232.582031 142.476562 C 232.300781 143.417969 231.96875 144.75 231.839844 145.433594 C 231.6875 146.25 231.371094 146.742188 230.925781 146.859375 C 230.289062 147.027344 230.261719 147.261719 230.488281 150.453125 C 230.648438 152.71875 230.605469 153.949219 230.363281 154.101562 C 230.160156 154.226562 229.863281 154.128906 229.707031 153.882812 C 229.519531 153.589844 229.351562 153.859375 229.214844 154.667969 C 229.09375 155.410156 228.929688 155.6875 228.808594 155.371094 Z M 325.636719 155.464844 C 325.25 155.367188 324.484375 154.972656 323.9375 154.582031 C 323.113281 153.996094 322.445312 153.886719 319.988281 153.933594 C 318.363281 153.96875 317.03125 153.910156 317.03125 153.808594 C 317.03125 153.707031 317.625 153.371094 318.347656 153.058594 C 319.230469 152.679688 320.5625 152.511719 322.386719 152.546875 C 323.882812 152.574219 325.109375 152.507812 325.109375 152.398438 C 325.109375 152.289062 324.914062 151.886719 324.675781 151.507812 C 324.296875 150.902344 324.386719 150.679688 325.378906 149.773438 C 326.003906 149.203125 326.511719 148.582031 326.511719 148.386719 C 326.511719 148.007812 332.613281 144.125 333.621094 143.863281 C 334.613281 143.601562 334.339844 144.414062 332.835938 146.199219 C 331.242188 148.089844 331.203125 148.21875 332.027344 149.128906 C 332.519531 149.671875 332.554688 149.96875 332.234375 150.824219 C 331.773438 152.042969 331.871094 152.070312 334.472656 151.394531 C 335.949219 151.011719 336.371094 151.011719 336.894531 151.390625 C 337.238281 151.644531 337.457031 151.90625 337.375 151.96875 C 337.289062 152.035156 335.878906 152.65625 334.238281 153.351562 C 332.597656 154.046875 330.78125 154.863281 330.199219 155.167969 C 329.1875 155.695312 327.105469 155.832031 325.636719 155.464844 Z M 274.914062 150.792969 C 274.054688 150.613281 271.949219 149.980469 270.226562 149.386719 C 268.503906 148.789062 266.679688 148.328125 266.164062 148.363281 C 263.992188 148.5 261.898438 148.324219 261.898438 147.996094 C 261.898438 147.804688 262.257812 147.644531 262.699219 147.644531 C 263.136719 147.644531 263.855469 147.394531 264.292969 147.089844 C 264.929688 146.640625 265.300781 146.605469 266.179688 146.914062 C 267.363281 147.328125 271.476562 147.414062 273.554688 147.070312 C 275.578125 146.738281 275.652344 145.199219 273.695312 144.152344 C 272.234375 143.367188 272.160156 142.382812 273.480469 141.28125 C 274.105469 140.757812 274.519531 140.171875 274.398438 139.976562 C 274.003906 139.332031 274.941406 137.914062 276.246094 137.183594 C 278.417969 135.960938 287.613281 132.894531 289.101562 132.894531 C 289.933594 132.894531 289.738281 133.441406 288.742188 133.894531 C 288.25 134.121094 287.941406 134.460938 288.0625 134.65625 C 288.183594 134.851562 288.035156 135.101562 287.734375 135.21875 C 287.433594 135.332031 287.273438 135.570312 287.378906 135.742188 C 287.488281 135.914062 287.414062 136.058594 287.214844 136.058594 C 286.609375 136.058594 284.324219 138.246094 283.976562 139.160156 C 283.710938 139.855469 283.828125 140.285156 284.578125 141.363281 C 285.273438 142.371094 285.46875 143.015625 285.359375 143.957031 C 285.167969 145.589844 285.78125 145.75 289.675781 145.078125 C 292.734375 144.554688 293.199219 144.578125 292.542969 145.234375 C 292.328125 145.449219 292.234375 145.835938 292.332031 146.09375 C 292.449219 146.390625 292.152344 146.644531 291.515625 146.785156 C 290.96875 146.910156 289.253906 147.488281 287.707031 148.074219 C 279.960938 151.003906 277.964844 151.429688 274.914062 150.792969 Z M 194.476562 128.179688 C 194.476562 128.097656 195.460938 127.433594 196.667969 126.699219 C 199.1875 125.167969 201.5 123.179688 201.5 122.542969 C 201.5 122.304688 200.785156 121.832031 199.914062 121.5 C 198.589844 120.992188 197.632812 120.933594 194.035156 121.121094 C 191.667969 121.242188 189.378906 121.417969 188.945312 121.507812 C 187.53125 121.800781 188.113281 121.070312 189.824219 120.398438 C 191.070312 119.910156 192.175781 119.773438 194.195312 119.859375 C 197.105469 119.980469 199.964844 119.257812 202.730469 117.691406 C 205.074219 116.367188 205.371094 114.292969 204.441406 105.765625 C 204.257812 104.078125 204.417969 103.082031 205.390625 99.792969 C 206.191406 97.089844 206.566406 95.101562 206.574219 93.480469 C 206.59375 90.871094 207.011719 90.578125 207.671875 92.710938 C 207.90625 93.46875 208.113281 93.894531 208.136719 93.652344 C 208.199219 92.871094 208.875 93.191406 208.878906 94.003906 C 208.882812 94.441406 208.984375 95.171875 209.105469 95.628906 L 209.328125 96.460938 L 209.792969 95.628906 C 210.238281 94.820312 210.253906 94.835938 210.265625 96.132812 C 210.273438 96.933594 210.417969 97.382812 210.628906 97.253906 C 210.839844 97.125 210.980469 97.601562 210.980469 98.460938 C 210.980469 99.246094 211.148438 99.886719 211.351562 99.886719 C 211.597656 99.886719 211.640625 100.851562 211.480469 102.828125 C 211.265625 105.496094 211.308594 105.832031 211.957031 106.484375 C 212.9375 107.460938 213.3125 111.179688 212.78125 114.597656 C 212.558594 116.03125 212.460938 117.289062 212.566406 117.390625 C 212.671875 117.496094 213.421875 117.617188 214.238281 117.667969 C 216.835938 117.816406 220.429688 118.347656 220.703125 118.621094 C 220.847656 118.769531 220.734375 119.035156 220.453125 119.214844 C 220.058594 119.460938 220.167969 119.542969 220.902344 119.546875 C 221.433594 119.550781 221.867188 119.691406 221.867188 119.863281 C 221.867188 120.773438 215.167969 122.363281 211.320312 122.363281 C 209.121094 122.363281 208.644531 122.488281 207.292969 123.414062 C 206.453125 123.996094 205.65625 124.46875 205.527344 124.46875 C 205.398438 124.46875 204.875 124.761719 204.363281 125.117188 C 203.234375 125.90625 200.28125 126.925781 199.140625 126.925781 C 198.683594 126.925781 197.691406 127.242188 196.933594 127.628906 C 195.667969 128.277344 194.476562 128.542969 194.476562 128.179688 Z M 230.601562 126.046875 C 230.476562 125.855469 230.261719 124.984375 230.117188 124.117188 C 229.976562 123.25 229.503906 121.824219 229.070312 120.957031 C 228.09375 119.011719 227.488281 116.257812 227.488281 113.789062 C 227.488281 112.410156 227.761719 111.386719 228.542969 109.855469 C 229.121094 108.71875 229.6875 107.308594 229.800781 106.726562 C 229.992188 105.710938 229.917969 105.636719 228.191406 105.011719 C 226.632812 104.453125 225.71875 104.390625 221.652344 104.570312 C 218.652344 104.703125 217.003906 104.65625 217.136719 104.441406 C 217.25 104.253906 217.539062 104.101562 217.773438 104.101562 C 218.007812 104.101562 218.589844 103.824219 219.070312 103.484375 C 219.777344 102.984375 220.714844 102.871094 224.152344 102.859375 C 227.777344 102.847656 228.621094 102.734375 230.183594 102.039062 C 231.742188 101.34375 232.121094 100.96875 232.847656 99.414062 C 233.316406 98.417969 233.890625 96.8125 234.128906 95.847656 C 234.660156 93.675781 235.386719 92.511719 236.210938 92.511719 C 237.292969 92.511719 240.214844 91.386719 242.296875 90.167969 C 244.554688 88.84375 244.753906 88.785156 244.464844 89.546875 C 244.292969 89.988281 244.4375 90.042969 245.234375 89.84375 C 246.054688 89.636719 246.179688 89.691406 245.992188 90.175781 C 245.871094 90.496094 245.921875 90.757812 246.109375 90.757812 C 246.832031 90.757812 246.398438 91.488281 245.226562 92.246094 C 244.550781 92.683594 244 93.15625 243.996094 93.300781 C 243.988281 93.722656 250.085938 93.605469 252.078125 93.144531 C 253.082031 92.914062 253.972656 92.539062 254.058594 92.308594 C 254.148438 92.078125 253.894531 91.28125 253.496094 90.539062 C 251.976562 87.707031 252.558594 86.535156 257.164062 83.140625 C 261.222656 80.152344 261.773438 79.835938 261.449219 80.679688 C 261.332031 80.980469 261.425781 81.296875 261.65625 81.375 C 261.953125 81.480469 261.902344 81.71875 261.488281 82.191406 C 261.164062 82.554688 260.925781 82.945312 260.960938 83.050781 C 260.996094 83.160156 260.429688 83.769531 259.707031 84.40625 C 258.675781 85.3125 258.390625 85.816406 258.390625 86.746094 C 258.390625 87.703125 258.589844 88.03125 259.4375 88.472656 C 260.921875 89.238281 261.105469 90.402344 260.042969 92.304688 C 259.558594 93.167969 259.253906 93.960938 259.363281 94.070312 C 259.472656 94.179688 260.71875 94.269531 262.136719 94.269531 C 264.191406 94.269531 264.710938 94.375 264.710938 94.792969 C 264.710938 95.152344 265.070312 95.320312 265.835938 95.320312 C 267.503906 95.320312 266.671875 95.789062 263.128906 96.847656 C 257.976562 98.382812 251.421875 98.019531 248.558594 96.042969 C 247.207031 95.109375 246.445312 94.890625 244.261719 94.804688 C 242.015625 94.71875 241.875 94.816406 240.335938 97.488281 C 239.183594 99.492188 238.710938 101.050781 239.074219 101.640625 C 239.371094 102.121094 241.585938 102.175781 245.308594 101.789062 C 246.828125 101.628906 247.503906 101.679688 247.503906 101.953125 C 247.503906 102.167969 247.304688 102.347656 247.066406 102.355469 C 246.824219 102.359375 246.898438 102.523438 247.242188 102.722656 C 248.296875 103.339844 247.925781 103.640625 245.835938 103.875 C 244.726562 104 242.644531 104.496094 241.207031 104.976562 C 239.773438 105.457031 238.113281 105.941406 237.519531 106.054688 C 236.546875 106.242188 236.328125 106.550781 235.269531 109.21875 C 234.3125 111.636719 234.140625 112.4375 234.34375 113.625 C 234.515625 114.648438 234.472656 115.003906 234.199219 114.835938 C 233.9375 114.671875 233.808594 115.074219 233.808594 116.054688 C 233.808594 117.191406 233.695312 117.476562 233.300781 117.324219 C 232.902344 117.171875 232.765625 117.53125 232.683594 118.953125 C 232.609375 120.246094 232.441406 120.753906 232.113281 120.683594 C 231.75 120.609375 231.699219 121.03125 231.871094 122.613281 C 232.070312 124.453125 232.042969 124.582031 231.566406 123.992188 C 231.082031 123.386719 231.035156 123.449219 230.933594 124.871094 C 230.875 125.710938 230.722656 126.242188 230.601562 126.046875 Z M 281.777344 89.273438 C 281.640625 88.363281 280.980469 86.230469 280.316406 84.535156 C 279.652344 82.84375 279.109375 81.015625 279.109375 80.476562 C 279.109375 79.648438 278.851562 79.378906 277.441406 78.734375 C 276.054688 78.101562 275.003906 77.957031 271.242188 77.875 C 268.75 77.820312 266.636719 77.699219 266.539062 77.605469 C 266.445312 77.511719 266.769531 77.28125 267.261719 77.09375 C 267.753906 76.90625 268.265625 76.578125 268.398438 76.359375 C 268.566406 76.089844 269.351562 76.035156 270.835938 76.195312 C 273.433594 76.472656 276.707031 75.75 279.042969 74.382812 C 281.066406 73.195312 281.675781 71.761719 281.355469 68.933594 L 281.117188 66.820312 L 283.398438 64.480469 C 284.652344 63.191406 286.199219 61.386719 286.839844 60.46875 C 288.15625 58.589844 288.410156 58.425781 288.097656 59.660156 C 287.980469 60.128906 288.035156 60.609375 288.21875 60.722656 C 288.414062 60.84375 288.277344 61.40625 287.898438 62.058594 C 286.457031 64.542969 285.996094 68.347656 286.96875 69.738281 C 287.730469 70.828125 287.683594 72.585938 286.84375 74.234375 C 286.015625 75.859375 286.210938 76.007812 289.144531 76.007812 C 290.601562 76.007812 291.046875 76.132812 291.046875 76.535156 C 291.046875 76.824219 291.285156 77.0625 291.574219 77.0625 C 291.863281 77.0625 292.101562 77.222656 292.101562 77.414062 C 292.101562 77.605469 291.585938 77.765625 290.960938 77.765625 C 290.332031 77.761719 288.699219 78.09375 287.332031 78.5 L 284.847656 79.234375 L 284.25 81.046875 C 282.984375 84.859375 282.570312 86.707031 282.75 87.75 C 282.855469 88.339844 282.734375 89.300781 282.484375 89.878906 L 282.03125 90.933594 Z M 305.972656 82.304688 C 304.460938 80.5 303.472656 80.039062 303.882812 81.328125 C 304.074219 81.929688 304.003906 82.039062 303.554688 81.867188 C 303.175781 81.722656 302.988281 81.839844 302.988281 82.21875 C 302.988281 82.53125 302.15625 81.71875 301.144531 80.410156 C 298.578125 77.105469 298.074219 76.292969 298.074219 75.449219 C 298.066406 73.667969 296.007812 73.136719 291.3125 73.703125 C 290.199219 73.839844 289.292969 73.863281 289.292969 73.757812 C 289.292969 73.652344 289.90625 73.25 290.660156 72.867188 C 291.695312 72.339844 292.441406 72.21875 293.730469 72.363281 C 295.140625 72.523438 295.839844 72.371094 297.773438 71.484375 C 300.589844 70.195312 303.832031 69.628906 307.875 69.730469 C 309.53125 69.769531 311.222656 69.695312 311.628906 69.5625 C 312.035156 69.429688 312.746094 69.46875 313.207031 69.644531 C 313.96875 69.933594 313.726562 70.117188 310.714844 71.519531 C 308.878906 72.375 306.863281 73.277344 306.234375 73.53125 C 305.609375 73.78125 305.09375 74.027344 305.09375 74.078125 C 305.09375 74.125 305.488281 75.058594 305.972656 76.152344 C 306.457031 77.242188 306.851562 78.351562 306.851562 78.609375 C 306.851562 78.871094 307.09375 79.285156 307.394531 79.535156 C 307.691406 79.78125 307.847656 80.214844 307.738281 80.5 C 307.628906 80.78125 307.730469 81.242188 307.960938 81.523438 C 308.292969 81.921875 308.285156 82.09375 307.917969 82.320312 C 307.660156 82.480469 307.546875 82.859375 307.660156 83.160156 C 308.105469 84.3125 307.324219 83.917969 305.972656 82.304688 Z M 305.972656 82.304688 " fill-opacity="1" fill-rule="nonzero"/></g></svg>