<svg xmlns="http://www.w3.org/2000/svg" xmlns:xlink="http://www.w3.org/1999/xlink" width="500" zoomAndPan="magnify" viewBox="0 0 375 374.999991" height="500" preserveAspectRatio="xMidYMid meet" version="1.0"><defs><clipPath id="0de2286605"><path d="M 188 58.429688 L 337.5 58.429688 L 337.5 170.929688 L 188 170.929688 Z M 188 58.429688 " clip-rule="nonzero"/></clipPath></defs><g clip-path="url(#0de2286605)"><path fill="#000000" d="M 304.9375 169.84375 C 303.625 163.703125 303.613281 163.597656 304.035156 162.585938 C 304.265625 162.027344 304.757812 161.296875 305.125 160.964844 C 305.996094 160.175781 305.96875 159.699219 305.003906 158.820312 C 303.835938 157.753906 301.941406 157.269531 299.5 157.410156 C 296.949219 157.558594 296.480469 157.195312 298.261719 156.453125 C 299.238281 156.042969 300.035156 155.988281 301.699219 156.214844 C 302.890625 156.375 304.714844 156.480469 305.757812 156.449219 C 308.289062 156.375 308.992188 155.554688 309.59375 151.992188 C 309.863281 150.378906 310.277344 149.125 310.640625 148.808594 C 310.96875 148.523438 312.582031 147.78125 314.222656 147.160156 C 315.863281 146.539062 317.359375 145.890625 317.542969 145.714844 C 317.996094 145.277344 319.140625 145.308594 319.140625 145.753906 C 319.140625 145.953125 318.902344 146.207031 318.613281 146.316406 C 318.328125 146.429688 318.171875 146.648438 318.269531 146.808594 C 318.367188 146.964844 318.140625 147.191406 317.765625 147.3125 C 316.570312 147.691406 314.484375 150.285156 314.699219 151.128906 C 315.339844 153.632812 315.339844 153.820312 314.644531 154.996094 C 314.25 155.660156 314.023438 156.292969 314.136719 156.40625 C 314.25 156.519531 315.257812 156.613281 316.378906 156.613281 C 318.042969 156.613281 318.378906 156.707031 318.214844 157.136719 C 318.101562 157.425781 318.1875 157.664062 318.398438 157.664062 C 318.613281 157.664062 318.789062 157.820312 318.789062 158.015625 C 318.789062 158.207031 318.40625 158.363281 317.941406 158.363281 C 317.472656 158.363281 316.328125 158.707031 315.394531 159.125 C 314.460938 159.546875 312.839844 159.980469 311.789062 160.089844 L 309.882812 160.292969 L 308.546875 162.746094 C 307.8125 164.097656 307.207031 165.625 307.207031 166.144531 C 307.203125 166.664062 307.042969 167.183594 306.847656 167.304688 C 306.65625 167.421875 306.496094 167.828125 306.496094 168.203125 C 306.496094 168.574219 306.339844 168.882812 306.148438 168.882812 C 305.953125 168.882812 305.796875 169.277344 305.796875 169.757812 C 305.796875 170.847656 305.164062 170.914062 304.9375 169.847656 Z M 243.992188 160 C 243.992188 159.929688 244.78125 159.382812 245.746094 158.78125 C 247.726562 157.554688 247.90625 157.140625 246.59375 156.8125 C 246.097656 156.6875 245.101562 156.195312 244.386719 155.722656 C 243.46875 155.117188 242.207031 154.75 240.113281 154.476562 C 236.054688 153.949219 235.832031 153.835938 237.632812 153.222656 C 238.871094 152.796875 239.464844 152.773438 240.617188 153.089844 C 242.746094 153.671875 247.421875 153.695312 249.386719 153.132812 C 251.75 152.453125 252.203125 151.347656 252.105469 146.46875 C 252.023438 142.390625 252.167969 141.886719 254.425781 138.222656 C 255.253906 136.882812 255.933594 135.460938 255.933594 135.066406 C 255.9375 134.671875 256.09375 134.113281 256.28125 133.824219 C 256.523438 133.449219 256.621094 133.84375 256.625 135.207031 C 256.632812 136.996094 256.667969 137.070312 257.183594 136.433594 C 257.707031 135.789062 257.726562 135.8125 257.542969 136.890625 C 257.402344 137.734375 257.484375 138.03125 257.855469 138.03125 C 258.722656 138.03125 258.886719 140.320312 258.195312 142.878906 C 257.207031 146.535156 257.148438 149.566406 258.011719 152.394531 L 258.746094 154.808594 L 260.699219 155.054688 C 261.777344 155.1875 263.394531 155.203125 264.296875 155.085938 C 265.796875 154.894531 265.878906 154.917969 265.257812 155.394531 C 264.882812 155.679688 264.773438 155.910156 265.015625 155.910156 C 265.253906 155.910156 265.355469 156.070312 265.234375 156.261719 C 265.117188 156.453125 264.515625 156.613281 263.898438 156.613281 C 263.28125 156.613281 261.667969 156.9375 260.316406 157.339844 C 258.019531 158.019531 253.222656 158.335938 252.449219 157.855469 C 252.277344 157.753906 251.128906 158.136719 249.894531 158.714844 C 248.042969 159.582031 243.992188 160.460938 243.992188 160 Z M 293.632812 155.890625 C 296.6875 153.105469 296.722656 152.90625 294.398438 151.839844 C 292.847656 151.132812 291.910156 150.953125 289.816406 150.964844 C 288.367188 150.972656 287.183594 150.855469 287.183594 150.710938 C 287.183594 149.964844 289.804688 149.546875 292.992188 149.785156 C 297.363281 150.113281 299.472656 149.804688 299.472656 148.839844 C 299.472656 148.445312 299.0625 147.636719 298.558594 147.039062 C 297.410156 145.675781 297.582031 144.105469 299.101562 142.066406 C 299.679688 141.292969 300.773438 139.785156 301.53125 138.71875 C 302.289062 137.648438 303.171875 136.558594 303.496094 136.292969 C 304.03125 135.847656 304.058594 135.960938 303.828125 137.675781 C 303.59375 139.464844 303.613281 139.535156 304.335938 139.34375 C 305.210938 139.117188 305.292969 139.492188 304.601562 140.585938 C 303.683594 142.035156 303.640625 142.777344 304.417969 143.667969 C 305.367188 144.757812 305.164062 146.648438 303.890625 148.566406 C 303.394531 149.320312 302.984375 150.078125 302.984375 150.257812 C 302.984375 150.71875 303.882812 150.996094 306.132812 151.230469 C 307.6875 151.394531 308.117188 151.570312 308.15625 152.058594 C 308.195312 152.585938 307.992188 152.652344 306.835938 152.5 C 306.03125 152.390625 304.75 152.550781 303.722656 152.886719 C 302.761719 153.199219 301.679688 153.457031 301.320312 153.457031 C 300.960938 153.457031 300.039062 153.910156 299.277344 154.464844 C 297.292969 155.910156 294.601562 157.207031 293.007812 157.480469 L 291.632812 157.714844 Z M 228.808594 155.210938 C 228.699219 154.921875 228.40625 153.894531 228.160156 152.929688 C 227.914062 151.964844 227.273438 150.195312 226.738281 148.992188 C 225.242188 145.632812 225.171875 144.738281 226.226562 142.511719 C 226.726562 141.457031 227.136719 140.449219 227.132812 140.277344 C 227.132812 139.734375 223.0625 138.730469 220.875 138.730469 C 219.730469 138.730469 218.285156 138.628906 217.660156 138.503906 L 216.527344 138.277344 L 217.671875 137.796875 C 218.542969 137.433594 219.804688 137.371094 222.910156 137.546875 C 225.820312 137.710938 227.226562 137.65625 227.789062 137.355469 C 228.238281 137.117188 229.078125 135.851562 229.738281 134.414062 C 231.101562 131.460938 231.917969 130.628906 234.429688 129.644531 C 235.445312 129.246094 237.0625 128.523438 238.015625 128.042969 C 240.097656 126.988281 240.824219 126.902344 240.007812 127.804688 C 239.6875 128.15625 239.507812 128.53125 239.613281 128.636719 C 239.714844 128.738281 239.097656 129.515625 238.242188 130.359375 C 237.132812 131.449219 236.605469 132.300781 236.417969 133.296875 C 236.277344 134.070312 235.929688 135.054688 235.648438 135.484375 C 235.058594 136.390625 234.925781 136.304688 238.296875 137.152344 C 239.597656 137.476562 241.007812 137.613281 241.722656 137.480469 C 242.699219 137.296875 242.9375 137.363281 242.9375 137.816406 C 242.9375 138.128906 242.976562 138.488281 243.023438 138.617188 C 243.074219 138.75 242.324219 138.902344 241.355469 138.957031 C 240.390625 139.015625 238.136719 139.410156 236.34375 139.84375 L 233.089844 140.625 L 232.582031 142.335938 C 232.300781 143.277344 231.96875 144.605469 231.839844 145.289062 C 231.6875 146.105469 231.371094 146.597656 230.925781 146.710938 C 230.289062 146.878906 230.261719 147.113281 230.488281 150.300781 C 230.648438 152.5625 230.605469 153.789062 230.363281 153.941406 C 230.160156 154.066406 229.863281 153.96875 229.707031 153.726562 C 229.519531 153.433594 229.351562 153.699219 229.214844 154.507812 C 229.09375 155.25 228.929688 155.527344 228.808594 155.207031 Z M 325.636719 155.304688 C 325.25 155.207031 324.484375 154.808594 323.9375 154.421875 C 323.113281 153.835938 322.445312 153.726562 319.988281 153.777344 C 318.363281 153.808594 317.03125 153.75 317.03125 153.648438 C 317.03125 153.546875 317.625 153.210938 318.347656 152.902344 C 319.230469 152.523438 320.5625 152.355469 322.386719 152.390625 C 323.882812 152.417969 325.109375 152.351562 325.109375 152.242188 C 325.109375 152.132812 324.914062 151.734375 324.675781 151.351562 C 324.296875 150.746094 324.386719 150.527344 325.378906 149.625 C 326.003906 149.054688 326.511719 148.429688 326.511719 148.238281 C 326.511719 147.859375 332.613281 143.984375 333.621094 143.71875 C 334.613281 143.460938 334.339844 144.269531 332.835938 146.054688 C 331.242188 147.941406 331.203125 148.070312 332.027344 148.976562 C 332.519531 149.519531 332.554688 149.816406 332.234375 150.667969 C 331.773438 151.886719 331.871094 151.914062 334.472656 151.238281 C 335.949219 150.855469 336.371094 150.855469 336.894531 151.234375 C 337.238281 151.488281 337.457031 151.75 337.375 151.816406 C 337.289062 151.878906 335.878906 152.5 334.238281 153.195312 C 332.597656 153.890625 330.78125 154.703125 330.199219 155.007812 C 329.1875 155.535156 327.105469 155.671875 325.636719 155.304688 Z M 274.914062 150.640625 C 274.054688 150.460938 271.949219 149.828125 270.226562 149.234375 C 268.503906 148.640625 266.679688 148.179688 266.164062 148.210938 C 263.992188 148.351562 261.898438 148.171875 261.898438 147.847656 C 261.898438 147.652344 262.257812 147.496094 262.699219 147.496094 C 263.136719 147.496094 263.855469 147.246094 264.292969 146.941406 C 264.929688 146.496094 265.300781 146.460938 266.179688 146.765625 C 267.363281 147.179688 271.476562 147.265625 273.554688 146.925781 C 275.578125 146.589844 275.652344 145.054688 273.695312 144.007812 C 272.234375 143.226562 272.160156 142.242188 273.480469 141.144531 C 274.105469 140.621094 274.519531 140.035156 274.398438 139.839844 C 274.003906 139.199219 274.941406 137.78125 276.246094 137.050781 C 278.417969 135.832031 287.613281 132.773438 289.101562 132.773438 C 289.933594 132.773438 289.738281 133.316406 288.742188 133.769531 C 288.25 133.992188 287.941406 134.335938 288.0625 134.527344 C 288.183594 134.722656 288.035156 134.976562 287.734375 135.089844 C 287.433594 135.207031 287.273438 135.441406 287.378906 135.613281 C 287.488281 135.785156 287.414062 135.925781 287.214844 135.925781 C 286.609375 135.925781 284.324219 138.113281 283.976562 139.027344 C 283.710938 139.722656 283.828125 140.148438 284.578125 141.226562 C 285.273438 142.234375 285.46875 142.875 285.359375 143.816406 C 285.167969 145.445312 285.78125 145.605469 289.675781 144.9375 C 292.734375 144.410156 293.199219 144.4375 292.542969 145.089844 C 292.328125 145.304688 292.234375 145.6875 292.332031 145.945312 C 292.449219 146.246094 292.152344 146.496094 291.515625 146.640625 C 290.96875 146.761719 289.253906 147.34375 287.707031 147.925781 C 279.960938 150.851562 277.964844 151.273438 274.914062 150.640625 Z M 194.476562 128.066406 C 194.476562 127.984375 195.460938 127.316406 196.667969 126.585938 C 199.1875 125.058594 201.5 123.074219 201.5 122.4375 C 201.5 122.195312 200.785156 121.726562 199.914062 121.394531 C 198.589844 120.890625 197.632812 120.828125 194.035156 121.015625 C 191.667969 121.140625 189.378906 121.3125 188.945312 121.402344 C 187.53125 121.695312 188.113281 120.964844 189.824219 120.296875 C 191.070312 119.808594 192.175781 119.671875 194.195312 119.757812 C 197.105469 119.878906 199.964844 119.15625 202.730469 117.59375 C 205.074219 116.269531 205.371094 114.199219 204.441406 105.683594 C 204.257812 104 204.417969 103.007812 205.390625 99.726562 C 206.191406 97.027344 206.566406 95.042969 206.574219 93.421875 C 206.59375 90.816406 207.011719 90.523438 207.671875 92.652344 C 207.90625 93.410156 208.113281 93.835938 208.136719 93.59375 C 208.199219 92.816406 208.875 93.132812 208.878906 93.945312 C 208.882812 94.378906 208.984375 95.109375 209.105469 95.566406 L 209.328125 96.398438 L 209.792969 95.566406 C 210.238281 94.761719 210.253906 94.777344 210.265625 96.070312 C 210.273438 96.867188 210.417969 97.320312 210.628906 97.1875 C 210.839844 97.058594 210.980469 97.535156 210.980469 98.394531 C 210.980469 99.179688 211.148438 99.816406 211.351562 99.816406 C 211.597656 99.816406 211.640625 100.78125 211.480469 102.753906 C 211.265625 105.417969 211.308594 105.753906 211.957031 106.402344 C 212.9375 107.378906 213.3125 111.09375 212.78125 114.503906 C 212.558594 115.9375 212.460938 117.191406 212.566406 117.292969 C 212.671875 117.398438 213.421875 117.519531 214.238281 117.566406 C 216.835938 117.71875 220.429688 118.25 220.703125 118.523438 C 220.847656 118.667969 220.734375 118.933594 220.453125 119.113281 C 220.058594 119.359375 220.167969 119.441406 220.902344 119.445312 C 221.433594 119.449219 221.867188 119.589844 221.867188 119.761719 C 221.867188 120.671875 215.167969 122.253906 211.320312 122.253906 C 209.121094 122.253906 208.644531 122.378906 207.292969 123.308594 C 206.453125 123.886719 205.65625 124.359375 205.527344 124.359375 C 205.398438 124.359375 204.875 124.652344 204.363281 125.007812 C 203.234375 125.792969 200.28125 126.8125 199.140625 126.8125 C 198.683594 126.8125 197.691406 127.128906 196.933594 127.515625 C 195.667969 128.160156 194.476562 128.425781 194.476562 128.066406 Z M 230.601562 125.9375 C 230.476562 125.742188 230.261719 124.875 230.117188 124.007812 C 229.976562 123.140625 229.503906 121.71875 229.070312 120.851562 C 228.09375 118.914062 227.488281 116.164062 227.488281 113.699219 C 227.488281 112.320312 227.761719 111.296875 228.542969 109.769531 C 229.121094 108.636719 229.6875 107.230469 229.800781 106.644531 C 229.992188 105.632812 229.917969 105.554688 228.191406 104.9375 C 226.632812 104.378906 225.71875 104.316406 221.652344 104.492188 C 218.652344 104.625 217.003906 104.578125 217.136719 104.363281 C 217.25 104.175781 217.539062 104.023438 217.773438 104.023438 C 218.007812 104.023438 218.589844 103.75 219.070312 103.410156 C 219.777344 102.910156 220.714844 102.796875 224.152344 102.785156 C 227.777344 102.777344 228.621094 102.660156 230.183594 101.964844 C 231.742188 101.269531 232.121094 100.898438 232.847656 99.347656 C 233.316406 98.351562 233.890625 96.75 234.128906 95.785156 C 234.660156 93.617188 235.386719 92.457031 236.210938 92.457031 C 237.292969 92.457031 240.214844 91.332031 242.296875 90.113281 C 244.554688 88.792969 244.753906 88.734375 244.464844 89.492188 C 244.292969 89.9375 244.4375 89.992188 245.234375 89.792969 C 246.054688 89.585938 246.179688 89.640625 245.992188 90.125 C 245.871094 90.441406 245.921875 90.703125 246.109375 90.703125 C 246.832031 90.703125 246.398438 91.433594 245.226562 92.191406 C 244.550781 92.625 244 93.101562 243.996094 93.246094 C 243.988281 93.664062 250.085938 93.546875 252.078125 93.089844 C 253.082031 92.855469 253.972656 92.480469 254.058594 92.25 C 254.148438 92.023438 253.894531 91.226562 253.496094 90.484375 C 251.976562 87.65625 252.558594 86.488281 257.164062 83.101562 C 261.222656 80.117188 261.773438 79.800781 261.449219 80.640625 C 261.332031 80.945312 261.425781 81.257812 261.65625 81.339844 C 261.953125 81.441406 261.902344 81.683594 261.488281 82.148438 C 261.164062 82.515625 260.925781 82.902344 260.960938 83.011719 C 260.996094 83.121094 260.429688 83.726562 259.707031 84.363281 C 258.675781 85.265625 258.390625 85.773438 258.390625 86.699219 C 258.390625 87.65625 258.589844 87.984375 259.4375 88.421875 C 260.921875 89.1875 261.105469 90.347656 260.042969 92.25 C 259.558594 93.109375 259.253906 93.902344 259.363281 94.011719 C 259.472656 94.121094 260.71875 94.207031 262.136719 94.207031 C 264.191406 94.207031 264.710938 94.316406 264.710938 94.734375 C 264.710938 95.09375 265.070312 95.261719 265.835938 95.261719 C 267.503906 95.261719 266.671875 95.730469 263.128906 96.78125 C 257.976562 98.316406 251.421875 97.953125 248.558594 95.980469 C 247.207031 95.046875 246.445312 94.828125 244.261719 94.746094 C 242.015625 94.660156 241.875 94.757812 240.335938 97.421875 C 239.183594 99.425781 238.710938 100.980469 239.074219 101.570312 C 239.371094 102.050781 241.585938 102.101562 245.308594 101.714844 C 246.828125 101.558594 247.503906 101.609375 247.503906 101.878906 C 247.503906 102.09375 247.304688 102.277344 247.066406 102.28125 C 246.824219 102.289062 246.898438 102.453125 247.242188 102.648438 C 248.296875 103.261719 247.925781 103.566406 245.835938 103.800781 C 244.726562 103.925781 242.644531 104.417969 241.207031 104.898438 C 239.773438 105.378906 238.113281 105.863281 237.519531 105.976562 C 236.546875 106.164062 236.328125 106.46875 235.269531 109.132812 C 234.3125 111.550781 234.140625 112.347656 234.34375 113.53125 C 234.515625 114.554688 234.472656 114.910156 234.199219 114.742188 C 233.9375 114.578125 233.808594 114.980469 233.808594 115.960938 C 233.808594 117.09375 233.695312 117.378906 233.300781 117.226562 C 232.902344 117.074219 232.765625 117.433594 232.683594 118.855469 C 232.609375 120.144531 232.441406 120.648438 232.113281 120.582031 C 231.75 120.503906 231.699219 120.925781 231.871094 122.507812 C 232.070312 124.34375 232.042969 124.472656 231.566406 123.882812 C 231.082031 123.277344 231.035156 123.339844 230.933594 124.757812 C 230.875 125.597656 230.722656 126.128906 230.601562 125.933594 Z M 281.777344 89.222656 C 281.640625 88.3125 280.980469 86.183594 280.316406 84.492188 C 279.652344 82.800781 279.109375 80.976562 279.109375 80.441406 C 279.109375 79.613281 278.851562 79.34375 277.441406 78.699219 C 276.054688 78.070312 275.003906 77.921875 271.242188 77.84375 C 268.75 77.789062 266.636719 77.667969 266.539062 77.574219 C 266.445312 77.480469 266.769531 77.25 267.261719 77.0625 C 267.753906 76.878906 268.265625 76.546875 268.398438 76.328125 C 268.566406 76.058594 269.351562 76.007812 270.835938 76.167969 C 273.433594 76.445312 276.707031 75.722656 279.042969 74.355469 C 281.066406 73.171875 281.675781 71.738281 281.355469 68.914062 L 281.117188 66.804688 L 283.398438 64.46875 C 284.652344 63.183594 286.199219 61.382812 286.839844 60.46875 C 288.15625 58.589844 288.410156 58.425781 288.097656 59.65625 C 287.980469 60.128906 288.035156 60.605469 288.21875 60.71875 C 288.414062 60.835938 288.277344 61.402344 287.898438 62.054688 C 286.457031 64.535156 285.996094 68.332031 286.96875 69.71875 C 287.730469 70.808594 287.683594 72.5625 286.84375 74.207031 C 286.015625 75.828125 286.210938 75.980469 289.144531 75.980469 C 290.601562 75.980469 291.046875 76.101562 291.046875 76.507812 C 291.046875 76.796875 291.285156 77.03125 291.574219 77.03125 C 291.863281 77.03125 292.101562 77.191406 292.101562 77.382812 C 292.101562 77.574219 291.585938 77.734375 290.960938 77.730469 C 290.332031 77.730469 288.699219 78.0625 287.332031 78.464844 L 284.847656 79.199219 L 284.25 81.007812 C 282.984375 84.8125 282.570312 86.660156 282.75 87.699219 C 282.855469 88.292969 282.734375 89.25 282.484375 89.828125 L 282.03125 90.878906 Z M 305.972656 82.265625 C 304.460938 80.460938 303.472656 80.003906 303.882812 81.292969 C 304.074219 81.890625 304.003906 82 303.554688 81.828125 C 303.175781 81.683594 302.988281 81.800781 302.988281 82.179688 C 302.988281 82.492188 302.15625 81.679688 301.144531 80.375 C 298.578125 77.074219 298.074219 76.265625 298.074219 75.421875 C 298.066406 73.640625 296.007812 73.109375 291.3125 73.679688 C 290.199219 73.8125 289.292969 73.835938 289.292969 73.730469 C 289.292969 73.625 289.90625 73.226562 290.660156 72.84375 C 291.695312 72.316406 292.441406 72.195312 293.730469 72.339844 C 295.140625 72.5 295.839844 72.347656 297.773438 71.464844 C 300.589844 70.175781 303.832031 69.613281 307.875 69.710938 C 309.53125 69.75 311.222656 69.675781 311.628906 69.542969 C 312.035156 69.410156 312.746094 69.449219 313.207031 69.625 C 313.96875 69.914062 313.726562 70.097656 310.714844 71.496094 C 308.878906 72.351562 306.863281 73.253906 306.234375 73.503906 C 305.609375 73.757812 305.09375 74.003906 305.09375 74.050781 C 305.09375 74.101562 305.488281 75.03125 305.972656 76.121094 C 306.457031 77.210938 306.851562 78.316406 306.851562 78.578125 C 306.851562 78.835938 307.09375 79.253906 307.394531 79.5 C 307.691406 79.746094 307.847656 80.179688 307.738281 80.464844 C 307.628906 80.746094 307.730469 81.207031 307.960938 81.484375 C 308.292969 81.882812 308.285156 82.054688 307.917969 82.28125 C 307.660156 82.441406 307.546875 82.816406 307.660156 83.121094 C 308.105469 84.269531 307.324219 83.875 305.972656 82.265625 Z M 305.972656 82.265625 " fill-opacity="1" fill-rule="nonzero"/></g></svg>