<svg width="259" height="41" viewBox="0 0 259 41" fill="none" xmlns="http://www.w3.org/2000/svg">
<path d="M22.0156 22.0683H12.5703L12.1016 22.748C11.1641 24.1386 10.3984 25.3105 9.80469 26.2636C9.22656 27.2011 8.9375 27.873 8.9375 28.2792C8.9375 28.9667 9.27344 29.412 9.94531 29.6151C10.6172 29.8026 11.4062 29.8964 12.3125 29.8964C12.4531 29.9589 12.5234 30.3026 12.5234 30.9276C12.5234 31.0214 12.5078 31.162 12.4766 31.3495C12.4453 31.537 12.3906 31.6308 12.3125 31.6308H0.429688C0.304688 31.6308 0.242188 31.4823 0.242188 31.1855C0.242188 30.7948 0.390625 30.3651 0.6875 29.8964C1.98438 29.8964 3.03906 29.6464 3.85156 29.1464C4.67969 28.6464 5.46875 27.8261 6.21875 26.6855L22.25 2.00577H26.0703L25.4375 26.9198C25.4062 28.0917 25.7188 28.8808 26.375 29.287C27.0312 29.6933 28.0078 29.8964 29.3047 29.8964C29.4609 29.9589 29.5391 30.3026 29.5391 30.9276C29.5391 31.0526 29.5234 31.2011 29.4922 31.373C29.4609 31.5448 29.3984 31.6308 29.3047 31.6308H17.6328C17.5234 31.6308 17.4688 31.4823 17.4688 31.1855C17.4688 30.8261 17.6094 30.3964 17.8906 29.8964C19.1406 29.8964 20.0547 29.6386 20.6328 29.123C21.2266 28.6073 21.5938 27.9667 21.7344 27.2011C21.875 26.4355 21.9531 25.3651 21.9688 23.9901C21.9688 23.1464 21.9844 22.5058 22.0156 22.0683ZM22.2969 7.32608L13.7891 20.6151H22.0859L22.2969 7.32608ZM39.7578 12.623C38.5234 12.623 37.9062 13.4511 37.9062 15.1073C37.9062 15.6542 38.0625 16.162 38.375 16.6308C38.6875 17.0995 39.0781 17.5292 39.5469 17.9198C40.0312 18.3105 40.6953 18.8026 41.5391 19.3964C42.6953 20.2089 43.6328 20.9355 44.3516 21.5761C45.0859 22.2167 45.7109 23.0058 46.2266 23.9433C46.7422 24.8808 47 25.9589 47 27.1776C47 28.8651 46.3906 30.1073 45.1719 30.9042C43.9688 31.6855 42.4766 32.0761 40.6953 32.0761C39.5234 32.0761 38.2891 31.8964 36.9922 31.537C35.6953 31.162 34.5938 30.6073 33.6875 29.873C32.7969 29.123 32.3516 28.2167 32.3516 27.1542C32.3516 25.9823 33.0469 25.3964 34.4375 25.3964C34.4688 25.3964 34.6719 25.7167 35.0469 26.3573C35.4375 26.9823 36.1641 27.7323 37.2266 28.6073C38.3047 29.4667 39.8438 29.9355 41.8438 30.0136C42.4531 30.0136 42.9297 29.8183 43.2734 29.4276C43.6172 29.0214 43.7891 28.3573 43.7891 27.4355C43.7891 26.6542 43.6016 25.9511 43.2266 25.3261C42.8516 24.6855 42.3906 24.1308 41.8438 23.662C41.3125 23.1776 40.5781 22.6073 39.6406 21.9511C38.6094 21.2167 37.7812 20.5761 37.1562 20.0292C36.5469 19.4823 36.0234 18.8183 35.5859 18.037C35.1641 17.2558 34.9531 16.3651 34.9531 15.3651C34.9531 14.287 35.2734 13.4042 35.9141 12.7167C36.5547 12.0292 37.3594 11.5292 38.3281 11.2167C39.3125 10.9042 40.3281 10.748 41.375 10.748C42.4375 10.748 43.5156 10.9511 44.6094 11.3573C45.7031 11.7636 46.6172 12.373 47.3516 13.1855C48.0859 13.9823 48.4531 14.9355 48.4531 16.0448C48.4531 16.3573 48.3359 16.623 48.1016 16.8417C47.8672 17.0605 47.5781 17.1698 47.2344 17.1698C46.875 17.1698 46.5312 17.0448 46.2031 16.7948C45.875 16.5292 45.4453 16.1073 44.9141 15.5292C44.3828 14.9355 43.8906 14.4433 43.4375 14.0526C43 13.662 42.4688 13.3261 41.8438 13.0448C41.2344 12.7636 40.5391 12.623 39.7578 12.623ZM50.8438 13.4901L51.5234 11.1933H56.7266L57.1484 10.0214C57.8828 7.94327 58.5938 6.20889 59.2812 4.81827C59.9844 3.41202 60.6875 2.70889 61.3906 2.70889C61.6094 2.70889 61.7969 2.77139 61.9531 2.89639C62.125 3.00577 62.25 3.13858 62.3281 3.29483C62.4219 3.45108 62.4531 3.56827 62.4219 3.64639C62.3594 3.81827 62.2656 4.08389 62.1406 4.44327C62.0156 4.78702 61.8516 5.24014 61.6484 5.80264C61.2422 6.97452 60.8594 8.06827 60.5 9.08389C60.1406 10.0839 59.8906 10.787 59.75 11.1933H65.4688L64.9766 13.5136H59.3984L56.2812 25.5839C56.25 25.7245 56.1641 26.0214 56.0234 26.4745C55.8984 26.9276 55.8359 27.3417 55.8359 27.7167C55.8359 28.9355 56.2578 29.5448 57.1016 29.5448C57.9922 29.5448 58.9531 28.6542 59.9844 26.873L61.2031 24.7636L62.7266 25.8183L61.3672 28.0214C60.5391 29.2558 59.6484 30.248 58.6953 30.998C57.7422 31.748 56.6641 32.123 55.4609 32.123C54.1641 32.123 53.25 31.7636 52.7188 31.0448C52.1875 30.3105 51.9219 29.3105 51.9219 28.0448L51.9453 28.0214C51.9453 26.537 52.2578 24.7558 52.8828 22.6776L55.6016 13.4901H50.8438ZM68.1406 12.7636C69.3438 11.7167 70.6562 11.1933 72.0781 11.1933C72.9375 11.1933 73.5781 11.4745 74 12.037C74.4375 12.5839 74.6562 13.3026 74.6562 14.1933C74.6562 15.2089 74.4453 16.4667 74.0234 17.9667C73.6172 19.4511 72.9766 21.498 72.1016 24.1073L71.6797 25.3964L72.125 25.5839L74.2812 21.7401C74.5781 21.2558 74.9219 20.662 75.3125 19.9589C76.3125 18.1933 77.2188 16.6855 78.0312 15.4355C78.8438 14.1855 79.7734 13.0917 80.8203 12.1542C81.8828 11.2011 82.9609 10.7245 84.0547 10.7245C84.6016 10.7245 85.1016 10.9355 85.5547 11.3573C86.0078 11.7792 86.2344 12.2636 86.2344 12.8105C86.2344 13.2792 86.0625 13.6855 85.7188 14.0292C85.3906 14.373 84.9844 14.6542 84.5 14.873C84.0312 15.0917 83.4141 15.3495 82.6484 15.6464C82.4609 15.7245 82.2031 15.8261 81.875 15.9511C81.5469 16.0761 81.2812 16.1933 81.0781 16.3026C80.2344 16.7245 79.2266 17.7089 78.0547 19.2558C76.8828 20.8026 75.7422 22.5058 74.6328 24.3651C73.5391 26.2245 72.6797 27.8183 72.0547 29.1464C71.5391 30.0995 71.0391 30.8026 70.5547 31.2558C70.0703 31.7089 69.5078 31.9355 68.8672 31.9355C68.4453 31.9355 68.1016 31.7558 67.8359 31.3964C67.5859 31.037 67.4609 30.4745 67.4609 29.7089C67.4609 29.2401 67.5391 28.7323 67.6953 28.1855C67.8516 27.6386 68.0859 26.9276 68.3984 26.0526C68.3984 26.0526 68.5 25.748 68.7031 25.1386C69.6562 22.2636 70.3125 20.0058 70.6719 18.3651C71.0469 16.7089 71.2344 15.5136 71.2344 14.7792C71.2344 14.5448 71.1641 14.3026 71.0234 14.0526C70.8828 13.787 70.625 13.6542 70.25 13.6542C69.7344 13.6542 69.2031 13.9042 68.6562 14.4042C68.125 14.8886 67.6719 15.3964 67.2969 15.9276C66.9219 16.4589 66.4453 17.1855 65.8672 18.1073L64.6016 16.912C65.7734 15.1933 66.9531 13.8105 68.1406 12.7636ZM97.7422 5.47452C97.3828 5.86514 96.8984 6.06046 96.2891 6.06046C95.8359 6.06046 95.375 5.94327 94.9062 5.70889C94.4531 5.47452 94.0781 5.13077 93.7812 4.67764C93.4844 4.22452 93.3359 3.70108 93.3359 3.10733C93.3359 2.38858 93.5312 1.84171 93.9219 1.46671C94.3281 1.09171 94.8438 0.904205 95.4688 0.904205C96.1719 0.904205 96.7891 1.13858 97.3203 1.60733C97.8672 2.07608 98.1875 2.73233 98.2812 3.57608C98.2812 4.45108 98.1016 5.08389 97.7422 5.47452ZM96.6406 26.7323L97.9766 24.7167L99.5 25.7714L98.0703 27.8573C97.1953 29.123 96.2656 30.1464 95.2812 30.9276C94.2969 31.6933 93.1797 32.0761 91.9297 32.0761C91.1797 32.0761 90.5234 31.8886 89.9609 31.5136C89.4141 31.123 88.9844 30.5995 88.6719 29.9433C88.375 29.287 88.2266 28.5761 88.2266 27.8105C88.2266 27.0917 88.3203 26.3495 88.5078 25.5839C88.6953 24.8183 88.9688 23.9433 89.3281 22.9589L91.6953 16.3026C91.7266 16.1776 91.8125 15.912 91.9531 15.5058C92.0938 15.0839 92.1641 14.6933 92.1641 14.3339C92.1641 13.8495 92.0469 13.4667 91.8125 13.1855C91.5938 12.8886 91.2734 12.7401 90.8516 12.7401C90.4297 12.7401 89.8906 13.0683 89.2344 13.7245C88.5938 14.3808 87.6094 15.623 86.2812 17.4511L85.0625 16.537C86.0625 15.1933 86.8984 14.1386 87.5703 13.373C88.2422 12.5917 88.9609 11.9589 89.7266 11.4745C90.4922 10.9901 91.3125 10.748 92.1875 10.748C94.4688 10.748 95.6094 12.0605 95.6094 14.6855C95.6094 15.7948 95.4219 16.9355 95.0469 18.1073L92.5859 25.6776C92.4922 25.912 92.4062 26.2323 92.3281 26.6386C92.25 27.0292 92.2109 27.4198 92.2109 27.8105C92.2109 28.2636 92.2969 28.662 92.4688 29.0058C92.6562 29.3339 92.9922 29.498 93.4766 29.498C93.9453 29.498 94.4375 29.2714 94.9531 28.8183C95.4688 28.3495 96.0312 27.6542 96.6406 26.7323ZM118.789 28.8886C119.07 29.2948 119.492 29.498 120.055 29.498C120.539 29.498 121.016 29.3183 121.484 28.9589C121.953 28.5995 122.414 28.123 122.867 27.5292C123.336 26.9355 123.977 26.0605 124.789 24.9042C124.961 24.6855 125.219 24.3261 125.562 23.8261L126.969 24.9276C126.797 25.1933 126.695 25.3417 126.664 25.373C125.742 26.7636 124.922 27.912 124.203 28.8183C123.484 29.7245 122.641 30.5058 121.672 31.162C120.719 31.8026 119.695 32.123 118.602 32.123C117.633 32.123 116.891 31.7792 116.375 31.0917C115.875 30.4042 115.625 29.412 115.625 28.1151C115.625 27.7558 115.648 27.373 115.695 26.9667C115.742 26.5448 115.773 26.2792 115.789 26.1698C115.82 26.0292 115.852 25.8183 115.883 25.537C115.164 26.8651 114.438 27.998 113.703 28.9355C112.969 29.873 112.078 30.6308 111.031 31.2089C109.984 31.787 108.758 32.0761 107.352 32.0761C106.023 32.0761 104.891 31.6308 103.953 30.7401C103.016 29.8339 102.312 28.7167 101.844 27.3886C101.391 26.0448 101.164 24.7167 101.164 23.4042C101.164 21.2323 101.641 19.1776 102.594 17.2401C103.562 15.287 104.891 13.7167 106.578 12.5292C108.266 11.3417 110.133 10.748 112.18 10.748C112.883 10.748 113.625 10.9355 114.406 11.3105C115.188 11.6698 115.867 12.2089 116.445 12.9276C117.039 13.6308 117.406 14.4823 117.547 15.4823C117.875 14.2792 118.391 12.3261 119.094 9.62296C119.812 6.90421 120.336 4.92764 120.664 3.69327L120.805 3.17764H116.75C116.5 3.17764 116.336 3.15421 116.258 3.10733C116.18 3.06046 116.141 2.99014 116.141 2.89639C116.141 2.67764 116.219 2.35733 116.375 1.93546C116.531 1.51358 116.656 1.29483 116.75 1.27921L123.711 0.435455C123.82 0.41983 123.969 0.412018 124.156 0.412018C124.5 0.412018 124.719 0.458893 124.812 0.552643C124.906 0.646393 124.953 0.865143 124.953 1.20889C124.953 1.56827 124.836 2.20108 124.602 3.10733L118.859 24.6933C118.703 25.2558 118.578 25.748 118.484 26.1698C118.406 26.5761 118.367 27.0136 118.367 27.4823C118.367 28.0136 118.508 28.4823 118.789 28.8886ZM115.461 23.4745C116.211 21.7401 116.586 20.162 116.586 18.7401C116.586 16.9276 116.289 15.5761 115.695 14.6855C115.117 13.7948 114.531 13.248 113.938 13.0448C113.359 12.8261 112.898 12.7167 112.555 12.7167C111.195 12.7167 109.969 13.2792 108.875 14.4042C107.797 15.5136 106.945 16.9433 106.32 18.6933C105.711 20.4433 105.406 22.2167 105.406 24.0136C105.406 25.498 105.688 26.8105 106.25 27.9511C106.828 29.0761 107.75 29.6386 109.016 29.6386C110.234 29.6386 111.43 29.0448 112.602 27.8573C113.773 26.6542 114.727 25.1933 115.461 23.4745ZM138.312 21.9511C138.656 21.5605 139.094 21.3651 139.625 21.3651C140.094 21.3651 140.477 21.498 140.773 21.7636C141.07 22.0136 141.305 22.3339 141.477 22.7245C141.664 23.1151 141.875 23.662 142.109 24.3651C142.484 25.5214 142.883 26.4745 143.305 27.2245C143.742 27.9745 144.438 28.6308 145.391 29.1933C146.359 29.7401 147.664 30.0136 149.305 30.0136C151.07 30.0136 152.422 29.5917 153.359 28.748C154.312 27.8886 154.789 26.5839 154.789 24.8339C154.789 23.912 154.539 23.0292 154.039 22.1855C153.539 21.3261 152.914 20.5448 152.164 19.8417C151.43 19.123 150.43 18.2323 149.164 17.1698C147.773 16.0292 146.656 15.0448 145.812 14.2167C144.969 13.3886 144.25 12.4511 143.656 11.4042C143.078 10.3573 142.789 9.24796 142.789 8.07608C142.789 6.51358 143.219 5.21671 144.078 4.18546C144.953 3.13858 146.07 2.37296 147.43 1.88858C148.805 1.38858 150.258 1.13858 151.789 1.13858C153.289 1.13858 154.789 1.38858 156.289 1.88858C157.789 2.38858 159.031 3.16983 160.016 4.23233C161.016 5.27921 161.516 6.57608 161.516 8.12296C161.516 8.65421 161.344 9.11514 161 9.50577C160.656 9.88077 160.219 10.0683 159.688 10.0683C159.234 10.0683 158.867 9.96671 158.586 9.76358C158.32 9.56046 158.109 9.31046 157.953 9.01358C157.797 8.71671 157.617 8.28702 157.414 7.72452C157.102 6.86514 156.766 6.15421 156.406 5.59171C156.047 5.02921 155.461 4.54483 154.648 4.13858C153.836 3.73233 152.719 3.52921 151.297 3.52921C149.953 3.52921 148.859 3.91983 148.016 4.70108C147.188 5.48233 146.773 6.54483 146.773 7.88858C146.773 8.77921 147.016 9.63858 147.5 10.4667C147.984 11.2792 148.586 12.0292 149.305 12.7167C150.023 13.3886 151.008 14.248 152.258 15.2948C153.648 16.4355 154.773 17.4276 155.633 18.2714C156.508 19.1151 157.242 20.0761 157.836 21.1542C158.445 22.2323 158.75 23.3886 158.75 24.623C158.75 26.3417 158.312 27.787 157.438 28.9589C156.578 30.1151 155.43 30.9745 153.992 31.537C152.57 32.0995 151.016 32.3808 149.328 32.3808C147.469 32.3808 145.648 32.037 143.867 31.3495C142.102 30.6464 140.648 29.6073 139.508 28.2323C138.367 26.8573 137.797 25.2167 137.797 23.3105C137.797 22.7792 137.969 22.3261 138.312 21.9511ZM186.078 24.9511L186.523 24.3651L187.789 25.4433C186.602 27.2089 185.328 28.7636 183.969 30.1073C182.625 31.4511 181.219 32.123 179.75 32.123C179.453 32.123 179.094 32.0214 178.672 31.8183C178.266 31.6151 177.883 31.2089 177.523 30.5995C177.18 29.9745 177.008 29.0995 177.008 27.9745C177.008 27.6933 177.109 26.8573 177.312 25.4667C175.375 29.873 172.617 32.0761 169.039 32.0761C167.93 32.0761 166.898 31.7948 165.945 31.2323C165.008 30.6542 164.25 29.7714 163.672 28.5839C163.094 27.3808 162.805 25.8808 162.805 24.0839C162.805 21.8495 163.289 19.7089 164.258 17.662C165.242 15.5995 166.562 13.9355 168.219 12.6698C169.891 11.3886 171.711 10.748 173.68 10.748C174.93 10.748 175.969 11.0058 176.797 11.5214C177.625 12.037 178.242 12.662 178.648 13.3964C179.07 14.1308 179.305 14.8261 179.352 15.4823L180.289 12.412C180.398 12.0839 180.555 11.8339 180.758 11.662C180.961 11.4745 181.234 11.3808 181.578 11.3808C182.125 11.3808 182.586 11.537 182.961 11.8495C183.352 12.162 183.547 12.5448 183.547 12.998C183.547 13.0917 183.508 13.2948 183.43 13.6073L181.273 20.6151C180.852 21.9589 180.516 23.1542 180.266 24.2011C180.031 25.248 179.914 26.1542 179.914 26.9198C179.914 27.5605 180.023 28.0917 180.242 28.5136C180.477 28.9198 180.852 29.123 181.367 29.123C182.055 29.123 182.781 28.7323 183.547 27.9511C184.328 27.1542 185.172 26.1542 186.078 24.9511ZM177.148 23.1464C177.945 21.3339 178.344 19.6073 178.344 17.9667C178.344 17.1073 178.148 16.2948 177.758 15.5292C177.383 14.748 176.859 14.123 176.188 13.6542C175.531 13.1855 174.812 12.9511 174.031 12.9511C173.016 12.9511 171.93 13.4276 170.773 14.3808C169.617 15.3339 168.648 16.623 167.867 18.248C167.102 19.8573 166.719 21.6073 166.719 23.498C166.719 25.4355 167.039 26.9198 167.68 27.9511C168.336 28.9823 169.203 29.498 170.281 29.498C171.578 29.498 172.852 28.8964 174.102 27.6933C175.352 26.4745 176.367 24.9589 177.148 23.1464ZM187.414 28.2558C187.789 27.9589 188.281 27.8105 188.891 27.8105C189.203 27.8105 189.648 27.9276 190.227 28.162C190.586 28.287 190.883 28.3886 191.117 28.4667C191.367 28.5292 191.625 28.5605 191.891 28.5605C192.547 28.5605 193.266 28.1464 194.047 27.3183C194.844 26.4901 195.547 25.6073 196.156 24.6698C196.766 23.7323 197.445 22.6308 198.195 21.3651C197.742 19.9901 197.383 18.8417 197.117 17.9198L196.93 17.2636C196.617 16.0917 196.25 15.1151 195.828 14.3339C195.422 13.537 194.859 13.1386 194.141 13.1386C193.359 13.1386 192.727 13.3964 192.242 13.912C191.773 14.412 191.32 15.0761 190.883 15.9042C190.68 16.2792 190.531 16.537 190.438 16.6776C190.344 16.8183 190.242 16.8886 190.133 16.8886C189.852 16.8886 189.562 16.7714 189.266 16.537C188.984 16.287 188.844 16.0683 188.844 15.8808C188.844 15.8495 188.859 15.8105 188.891 15.7636C189.594 14.7323 190.227 13.8808 190.789 13.2089C191.352 12.5214 192.008 11.9433 192.758 11.4745C193.523 10.9901 194.352 10.748 195.242 10.748C196.414 10.748 197.391 11.287 198.172 12.3651C198.953 13.4433 199.539 14.5995 199.93 15.8339C200.336 17.0683 200.539 17.8026 200.539 18.037C200.914 17.5683 201.633 16.6464 202.695 15.2714C203.758 13.8964 204.438 12.998 204.734 12.5761C205.172 12.0448 205.727 11.6151 206.398 11.287C207.086 10.9433 207.789 10.7714 208.508 10.7714C209.086 10.7714 209.672 10.873 210.266 11.0761C210.859 11.2792 211.352 11.5839 211.742 11.9901C212.148 12.3964 212.352 12.8964 212.352 13.4901C212.352 13.8808 212.164 14.2167 211.789 14.498C211.414 14.7636 210.984 14.8964 210.5 14.8964C210.234 14.8964 209.789 14.8026 209.164 14.6151C208.414 14.3964 207.812 14.287 207.359 14.287C207.094 14.287 206.5 14.7636 205.578 15.7167C204.656 16.6698 203.727 17.7089 202.789 18.8339C201.867 19.9433 201.406 20.5448 201.406 20.6386C201.406 20.9355 201.609 21.7401 202.016 23.0526C202.438 24.3651 202.68 25.1073 202.742 25.2792L202.977 25.9823L203.164 26.4745C203.367 27.0526 203.562 27.537 203.75 27.9276C203.938 28.3026 204.203 28.6386 204.547 28.9355C204.906 29.2323 205.352 29.3808 205.883 29.3808C206.805 29.3808 207.602 29.0839 208.273 28.4901C208.961 27.8964 209.672 27.0995 210.406 26.0995L210.711 25.7011L211.766 26.6151C211.781 26.662 211.789 26.7089 211.789 26.7558C211.789 26.787 211.789 26.8105 211.789 26.8261C210.039 29.1386 208.547 30.5917 207.312 31.1855C206.094 31.7792 205.234 32.0761 204.734 32.0761C203.672 32.0761 202.758 31.6151 201.992 30.6933C201.227 29.7558 200.648 28.787 200.258 27.787C199.867 26.7714 199.461 25.5526 199.039 24.1308C198.602 24.8026 197.844 25.8183 196.766 27.1776C195.688 28.5214 194.789 29.5761 194.07 30.3417C193.617 30.9042 193.016 31.3339 192.266 31.6308C191.531 31.9276 190.727 32.0761 189.852 32.0761C189.367 32.0761 188.891 31.9667 188.422 31.748C187.953 31.5292 187.57 31.2167 187.273 30.8105C186.977 30.4042 186.828 29.9433 186.828 29.4276C186.828 28.9276 187.023 28.537 187.414 28.2558ZM224.867 0.95108C224.836 1.40421 224.719 2.03702 224.516 2.84952L221.211 14.873C222.227 13.4042 223.375 12.3495 224.656 11.7089C225.953 11.0683 227.242 10.748 228.523 10.748C229.789 10.748 230.922 11.0292 231.922 11.5917C232.938 12.1542 233.734 12.9589 234.312 14.0058C234.891 15.037 235.18 16.248 235.18 17.6386C235.18 20.2011 234.594 22.5917 233.422 24.8105C232.25 27.0292 230.688 28.7948 228.734 30.1073C226.797 31.4198 224.734 32.0761 222.547 32.0761C220.359 32.0761 218.633 31.498 217.367 30.3417C216.102 29.1855 215.469 27.287 215.469 24.6464C215.469 23.2714 215.641 21.7948 215.984 20.2167C216.344 18.6386 217.047 15.9667 218.094 12.2011C218.719 10.0136 219.562 6.91983 220.625 2.91983L216.852 2.68546C216.477 2.62296 216.289 2.38858 216.289 1.98233C216.289 1.68546 216.5 1.45108 216.922 1.27921C217.344 1.09171 217.93 0.943268 218.68 0.833893C219.43 0.708893 220.633 0.54483 222.289 0.341705L223.602 0.177643C223.82 0.146393 223.977 0.130768 224.07 0.130768C224.336 0.130768 224.531 0.193268 224.656 0.318268C224.797 0.443268 224.867 0.654205 224.867 0.95108ZM230.305 22.8886C231.039 20.9823 231.406 19.2558 231.406 17.7089C231.406 16.8339 231.266 16.0058 230.984 15.2245C230.719 14.4433 230.32 13.8105 229.789 13.3261C229.258 12.8261 228.617 12.5761 227.867 12.5761C226.117 12.5761 224.609 13.1933 223.344 14.4276C222.078 15.6464 221.117 17.2011 220.461 19.0917C219.82 20.9667 219.5 22.8808 219.5 24.8339C219.5 26.6308 219.805 27.8964 220.414 28.6308C221.039 29.3495 221.914 29.7089 223.039 29.7089C224.602 29.7089 226.016 29.0448 227.281 27.7167C228.562 26.3886 229.57 24.7792 230.305 22.8886ZM253.32 12.4589C253.32 11.3183 253.898 10.748 255.055 10.748C255.914 10.748 256.617 11.0839 257.164 11.7558C257.711 12.412 258.102 13.1933 258.336 14.0995C258.57 14.9901 258.688 15.8026 258.688 16.537L258.734 16.4901C258.734 19.412 257.656 22.8261 255.5 26.7323C253.359 30.623 250.727 33.9589 247.602 36.7401C244.492 39.537 241.594 40.9355 238.906 40.9355C238.234 40.9355 237.539 40.8183 236.82 40.5839C236.102 40.3495 235.5 39.998 235.016 39.5292C234.516 39.0605 234.266 38.4901 234.266 37.8183C234.266 37.3026 234.523 36.912 235.039 36.6464C235.555 36.3808 236.18 36.248 236.914 36.248C237.398 36.248 238.07 36.3808 238.93 36.6464C239.43 36.787 239.844 36.8886 240.172 36.9511C240.516 37.0292 240.852 37.0683 241.18 37.0683C241.805 37.0683 242.367 36.9433 242.867 36.6933C243.367 36.4589 243.977 36.0136 244.695 35.3573C245.414 34.7011 246.469 33.6386 247.859 32.1698C247.594 31.2948 247.039 29.4823 246.195 26.7323C245.367 23.9667 244.688 21.6542 244.156 19.7948C243.578 17.7948 243.055 16.3026 242.586 15.3183C242.117 14.3183 241.672 13.8183 241.25 13.8183C240.656 13.8183 240.078 14.1542 239.516 14.8261C238.953 15.4823 238.359 16.3339 237.734 17.3808C237.516 17.7714 237.352 18.037 237.242 18.1776L236.023 17.1464C236.883 15.6933 237.609 14.5448 238.203 13.7011C238.812 12.8573 239.484 12.1542 240.219 11.5917C240.969 11.0292 241.789 10.748 242.68 10.748C243.414 10.748 244.047 11.0605 244.578 11.6855C245.109 12.2948 245.523 13.0761 245.82 14.0292L248.211 21.998C249.414 26.0917 250.156 28.5839 250.438 29.4745C250.906 28.8026 251.516 27.8495 252.266 26.6151C253.031 25.3651 253.719 24.0995 254.328 22.8183C254.953 21.537 255.266 20.5526 255.266 19.8651C255.266 19.1776 255.172 18.537 254.984 17.9433C254.812 17.3495 254.555 16.6308 254.211 15.787C253.914 15.037 253.688 14.4276 253.531 13.9589C253.391 13.4745 253.32 12.9745 253.32 12.4589Z" fill="url(#paint0_linear_42_820)"/>
<defs>
<linearGradient id="paint0_linear_42_820" x1="146.578" y1="72.6308" x2="149.578" y2="-19.3692" gradientUnits="userSpaceOnUse">
<stop offset="0.430155" stop-color="#303982"/>
<stop offset="0.872083" stop-color="#49D8FC" stop-opacity="0.49"/>
</linearGradient>
</defs>
</svg>
