<svg width="212" height="321" viewBox="0 0 212 321" fill="none" xmlns="http://www.w3.org/2000/svg">
<path d="M134.752 220.219C135.732 219.812 136.675 219.608 137.58 219.608C138.334 219.608 139.11 219.887 139.91 220.445C140.347 220.747 140.837 221.335 141.38 222.21C141.742 222.813 142.202 223.906 142.76 225.49L145.52 233.317C146.153 235.066 146.794 236.453 147.442 237.479C148.106 238.519 148.709 239.296 149.252 239.809C149.795 240.336 150.36 240.706 150.949 240.917C151.537 241.128 152.019 241.234 152.396 241.234C152.788 241.234 153.135 241.204 153.437 241.143L153.459 241.369C152.736 241.611 152.027 241.731 151.333 241.731C150.639 241.731 149.946 241.55 149.252 241.189C148.558 240.842 147.91 240.352 147.307 239.718C146.01 238.406 144.909 236.408 144.004 233.724L143.122 231.145H136.924L135.363 235.171C135.287 235.352 135.25 235.533 135.25 235.714C135.25 235.895 135.325 236.091 135.476 236.302C135.642 236.499 135.891 236.597 136.222 236.597H136.403V236.823H131.857V236.597H132.06C132.422 236.597 132.777 236.491 133.123 236.28C133.47 236.054 133.757 235.722 133.983 235.285L139.593 221.848C138.779 220.687 137.768 220.106 136.562 220.106C136.019 220.106 135.438 220.219 134.82 220.445L134.752 220.219ZM137.173 230.466H142.896L141.109 225.196C140.762 224.185 140.445 223.394 140.158 222.821L137.173 230.466Z" fill="black"/>
<path d="M140.556 254.202C140.275 253.991 140.064 253.698 139.924 253.323C139.795 252.936 139.724 252.579 139.713 252.251C139.713 251.911 139.76 251.653 139.853 251.477C139.947 251.29 140.076 251.284 140.24 251.46C140.217 252.093 140.334 252.573 140.592 252.901C140.849 253.229 141.16 253.435 141.523 253.517C141.898 253.599 142.291 253.575 142.701 253.446C143.123 253.317 143.48 253.118 143.773 252.849C144.078 252.567 144.283 252.227 144.389 251.829C144.506 251.431 144.447 251.003 144.213 250.546C143.908 250.206 143.562 249.878 143.176 249.561C142.801 249.233 142.42 248.911 142.033 248.595C141.646 248.278 141.271 247.956 140.908 247.628C140.545 247.288 140.223 246.931 139.941 246.556C139.918 246.532 139.906 246.485 139.906 246.415C139.906 246.333 139.918 246.28 139.941 246.257C140.023 246.151 140.14 245.987 140.293 245.765C140.445 245.542 140.621 245.29 140.82 245.009C141.019 244.727 141.23 244.435 141.453 244.13C141.676 243.813 141.887 243.515 142.086 243.233C142.285 242.952 142.461 242.7 142.613 242.477C142.777 242.255 142.9 242.091 142.982 241.985C143.146 241.774 143.31 241.651 143.474 241.616C143.65 241.581 143.896 241.604 144.213 241.686C144.201 241.733 144.154 241.839 144.072 242.003C143.99 242.155 143.931 242.255 143.896 242.302C143.803 242.442 143.627 242.688 143.369 243.04C143.111 243.38 142.836 243.749 142.543 244.147C142.25 244.534 141.974 244.903 141.717 245.255C141.459 245.595 141.277 245.829 141.172 245.958C141.078 246.099 141.113 246.263 141.277 246.45C141.441 246.638 141.676 246.849 141.98 247.083C142.285 247.317 142.631 247.581 143.017 247.874C143.404 248.155 143.767 248.46 144.107 248.788C144.459 249.116 144.752 249.468 144.986 249.843C145.232 250.218 145.361 250.622 145.373 251.056C145.396 251.477 145.273 251.923 145.004 252.392C144.746 252.86 144.277 253.358 143.598 253.886C143.387 254.05 143.152 254.19 142.894 254.308C142.648 254.425 142.39 254.501 142.121 254.536C141.851 254.583 141.582 254.583 141.312 254.536C141.043 254.489 140.791 254.378 140.556 254.202Z" fill="black"/>
<path d="M154.505 256.931C154.247 256.498 154.048 256.011 153.907 255.472C153.766 254.922 153.667 254.359 153.608 253.785C153.55 253.211 153.52 252.642 153.52 252.08C153.532 251.517 153.55 251.002 153.573 250.533C153.409 250.486 153.221 250.498 153.01 250.568C152.8 250.638 152.577 250.732 152.343 250.849C152.108 250.955 151.868 251.072 151.622 251.201C151.376 251.33 151.147 251.424 150.936 251.482C150.725 251.541 150.532 251.552 150.356 251.517C150.18 251.482 150.04 251.359 149.934 251.148C149.829 250.949 149.835 250.791 149.952 250.674C150.081 250.556 150.262 250.468 150.497 250.41C150.743 250.34 151.024 250.293 151.341 250.269C151.657 250.234 151.956 250.193 152.237 250.146C152.518 250.099 152.759 250.041 152.958 249.97C153.157 249.888 153.262 249.771 153.274 249.619L153.889 242.922C153.901 242.816 153.954 242.734 154.048 242.676C154.153 242.617 154.259 242.588 154.364 242.588C154.481 242.588 154.581 242.617 154.663 242.676C154.757 242.722 154.803 242.804 154.803 242.922V248.705C154.968 248.74 155.126 248.74 155.278 248.705C155.43 248.658 155.583 248.605 155.735 248.547C155.887 248.488 156.034 248.441 156.175 248.406C156.327 248.371 156.485 248.371 156.649 248.406C156.719 248.535 156.708 248.658 156.614 248.775C156.52 248.881 156.426 248.963 156.333 249.021L156.016 249.215C155.876 249.297 155.723 249.39 155.559 249.496C155.407 249.59 155.255 249.677 155.102 249.759C154.962 249.842 154.862 249.894 154.803 249.918C154.792 250.082 154.78 250.369 154.768 250.779C154.768 251.177 154.768 251.605 154.768 252.062C154.768 252.519 154.768 252.953 154.768 253.363C154.78 253.761 154.792 254.043 154.803 254.207C154.85 254.758 154.956 255.261 155.12 255.718C155.284 256.176 155.507 256.533 155.788 256.791C156.069 257.049 156.403 257.177 156.79 257.177C157.188 257.177 157.651 256.996 158.178 256.633C158.26 256.902 158.255 257.142 158.161 257.353C158.067 257.564 157.915 257.734 157.704 257.863C157.493 257.98 157.241 258.056 156.948 258.092C156.655 258.127 156.356 258.109 156.051 258.039C155.759 257.968 155.471 257.845 155.19 257.67C154.909 257.482 154.68 257.236 154.505 256.931Z" fill="black"/>
<path d="M165.072 258.634C164.884 259.021 164.726 259.214 164.597 259.214C164.468 259.226 164.357 259.097 164.263 258.827C164.181 258.57 164.111 258.201 164.052 257.72C164.006 257.24 163.97 256.706 163.947 256.12C163.935 255.534 163.935 254.919 163.947 254.275C163.959 253.63 163.976 253.009 164 252.411C164.035 251.814 164.076 251.269 164.123 250.777C164.17 250.273 164.217 249.88 164.263 249.599C164.322 249.306 164.381 249.148 164.439 249.124C164.498 249.101 164.556 249.259 164.615 249.599C164.99 249.318 165.394 249.054 165.828 248.808C166.261 248.55 166.707 248.339 167.164 248.175C167.633 247.999 168.101 247.888 168.57 247.841C169.051 247.794 169.513 247.835 169.959 247.964C170.006 248.117 170.011 248.292 169.976 248.492C169.941 248.691 169.83 248.82 169.642 248.878C169.455 248.843 169.209 248.826 168.904 248.826C168.599 248.826 168.277 248.849 167.937 248.896C167.597 248.943 167.258 249.019 166.918 249.124C166.578 249.23 166.267 249.37 165.986 249.546C165.717 249.71 165.494 249.915 165.318 250.161C165.154 250.396 165.072 250.677 165.072 251.005V258.634Z" fill="black"/>
<path d="M173.946 251.443C173.922 251.397 173.893 251.309 173.858 251.18C173.823 251.039 173.788 250.887 173.752 250.723C173.717 250.559 173.688 250.4 173.664 250.248C173.641 250.096 173.629 249.984 173.629 249.914V241.371C173.629 241.254 173.682 241.172 173.788 241.125C173.893 241.078 174.01 241.055 174.139 241.055C174.28 241.043 174.403 241.043 174.508 241.055C174.625 241.067 174.69 241.072 174.702 241.072V250.529C174.702 250.729 174.766 250.893 174.895 251.022C175.024 251.15 175.176 251.256 175.352 251.338C175.528 251.408 175.709 251.455 175.897 251.479C176.084 251.49 176.243 251.479 176.371 251.443C176.536 251.69 176.53 251.889 176.354 252.041C176.19 252.182 175.95 252.264 175.633 252.287C175.329 252.299 175.006 252.24 174.666 252.111C174.338 251.971 174.098 251.748 173.946 251.443ZM173.33 238.313C173.33 237.973 173.465 237.756 173.735 237.662C174.004 237.557 174.28 237.568 174.561 237.697V238.629C174.526 238.641 174.461 238.652 174.368 238.664C174.286 238.664 174.192 238.664 174.086 238.664C173.993 238.664 173.899 238.664 173.805 238.664C173.723 238.652 173.664 238.641 173.629 238.629C173.582 238.617 173.518 238.57 173.436 238.488C173.366 238.406 173.33 238.348 173.33 238.313Z" fill="black"/>
<path d="M177.461 237.49C177.321 237.22 177.233 236.851 177.198 236.382C177.163 235.902 177.168 235.368 177.215 234.783C177.274 234.197 177.368 233.587 177.496 232.954C177.637 232.322 177.807 231.718 178.006 231.144C178.217 230.57 178.452 230.048 178.709 229.579C178.979 229.099 179.272 228.73 179.588 228.472C179.905 228.202 180.245 228.074 180.608 228.085C180.971 228.085 181.346 228.273 181.733 228.648L182.33 223.743C182.342 223.697 182.389 223.638 182.471 223.568C182.553 223.486 182.612 223.445 182.647 223.445C182.694 223.445 182.752 223.456 182.823 223.48C182.893 223.503 182.957 223.533 183.016 223.568C183.086 223.591 183.145 223.62 183.192 223.656C183.239 223.691 183.262 223.72 183.262 223.743V232.304C183.262 232.949 183.373 233.505 183.596 233.974C183.819 234.443 184.112 234.788 184.475 235.011C184.838 235.234 185.254 235.31 185.723 235.24C186.204 235.158 186.702 234.894 187.217 234.449C187.381 234.449 187.457 234.525 187.446 234.677C187.434 234.818 187.364 234.988 187.235 235.187C187.118 235.386 186.942 235.591 186.707 235.802C186.485 236.013 186.233 236.189 185.952 236.329C185.682 236.458 185.389 236.529 185.073 236.54C184.768 236.552 184.469 236.458 184.176 236.259C183.942 236.107 183.731 235.925 183.543 235.714C183.356 235.503 183.186 235.275 183.034 235.029C182.893 234.783 182.758 234.531 182.629 234.273C182.512 234.015 182.413 233.763 182.33 233.517C182.284 233.622 182.202 233.781 182.084 233.991C181.979 234.191 181.856 234.425 181.715 234.695C181.575 234.952 181.428 235.228 181.276 235.521C181.123 235.802 180.977 236.077 180.836 236.347C180.696 236.605 180.567 236.839 180.45 237.05C180.332 237.249 180.245 237.396 180.186 237.49C180.022 237.794 179.817 238.023 179.571 238.175C179.325 238.327 179.067 238.404 178.797 238.404C178.539 238.404 178.288 238.327 178.041 238.175C177.807 238.023 177.614 237.794 177.461 237.49ZM178.375 236.874C178.387 236.909 178.416 236.956 178.463 237.015C178.51 237.062 178.563 237.109 178.621 237.156C178.68 237.191 178.739 237.214 178.797 237.226C178.868 237.238 178.932 237.22 178.991 237.173C179.565 236.74 180.028 236.224 180.379 235.626C180.743 235.029 181.036 234.396 181.258 233.728C181.481 233.06 181.657 232.38 181.786 231.689C181.914 230.986 182.038 230.318 182.155 229.685C181.522 229.603 180.977 229.656 180.52 229.843C180.075 230.019 179.7 230.288 179.395 230.652C179.09 231.015 178.85 231.449 178.674 231.952C178.498 232.456 178.375 232.99 178.305 233.552C178.235 234.103 178.205 234.671 178.217 235.257C178.241 235.831 178.293 236.37 178.375 236.874Z" fill="black"/>
<path d="M136.25 209.836C130.224 217.585 127.174 225.988 127.1 235.047C127.012 245.825 131.473 254.232 140.483 260.269C145.728 263.866 151.676 265.692 158.326 265.746C165.092 265.802 170.95 264.531 175.902 261.934C185.229 257.194 190.512 249.152 191.751 237.81C191.873 237.008 191.936 236.206 191.943 235.404C191.978 231.161 190.811 226.565 188.443 221.615C186.19 216.665 182.443 212.105 177.203 207.934L146.443 183.259C139.721 177.929 136.394 171.079 136.462 162.709C136.53 154.338 139.282 147.308 144.718 141.619C150.155 135.815 157.46 132.951 166.633 133.026C171.22 133.063 176.203 133.677 181.583 134.868L188.462 134.924L188.634 156.082L186.914 156.068C186.844 150.563 184.873 146.247 180.999 143.119C177.242 139.878 172.439 138.233 166.591 138.186C160.858 138.139 156.026 140.049 152.096 143.916C148.166 147.668 146.177 152.582 146.127 158.659C146.079 164.622 148.561 169.63 153.573 173.685L185.187 199.055C197.719 209.134 203.927 221.225 203.812 235.328C203.726 245.877 199.467 254.902 191.035 262.401C183.758 268.878 174.099 272.067 162.06 271.969C154.721 271.909 148.197 270.48 142.486 267.681C131.749 262.548 125.341 253.896 123.261 241.724C122.932 239.886 122.779 237.592 122.801 234.84C122.825 231.973 123.659 228.138 125.303 223.336C126.949 218.418 130.085 213.513 134.712 208.62L136.25 209.836Z" fill="#1D2366"/>
<path d="M22.3469 41.9976C29.8002 38.9016 36.9669 37.3536 43.8469 37.3536C49.5802 37.3536 55.4855 39.4749 61.5629 43.7176C64.8882 46.0109 68.6149 50.4829 72.7429 57.1336C75.4949 61.7203 78.9922 70.0336 83.2349 82.0736L104.219 141.586C109.035 154.887 113.908 165.436 118.839 173.234C123.884 181.146 128.471 187.051 132.599 190.95C136.727 194.963 141.027 197.772 145.499 199.378C149.971 200.983 153.64 201.786 156.507 201.786C159.488 201.786 162.126 201.556 164.419 201.098L164.591 202.818C159.087 204.652 153.698 205.57 148.423 205.57C143.148 205.57 137.874 204.194 132.599 201.442C127.324 198.804 122.394 195.078 117.807 190.262C107.946 180.286 99.5749 165.092 92.6949 144.682L85.9869 125.074H38.8589L26.9909 155.69C26.4175 157.066 26.1309 158.442 26.1309 159.818C26.1309 161.194 26.7042 162.684 27.8509 164.29C29.1122 165.78 31.0042 166.526 33.5269 166.526H34.9029V168.246H0.330876V166.526H1.87888C4.63088 166.526 7.32554 165.723 9.96288 164.118C12.6002 162.398 14.7789 159.875 16.4989 156.55L59.1549 54.3816C52.9629 45.5523 45.2802 41.1376 36.1069 41.1376C31.9789 41.1376 27.5642 41.9976 22.8629 43.7176L22.3469 41.9976ZM40.7509 119.914H84.2669L70.6789 79.8376C68.0415 72.1549 65.6335 66.1349 63.4549 61.7776L40.7509 119.914Z" fill="#0097B2"/>
</svg>
