<svg width="459" height="241" viewBox="0 0 459 241" fill="none" xmlns="http://www.w3.org/2000/svg">
<g filter="url(#filter0_d_13_2)">
<path d="M112.273 111.938H102.828L102.359 112.617C101.422 114.008 100.656 115.18 100.062 116.133C99.4844 117.07 99.1953 117.742 99.1953 118.148C99.1953 118.836 99.5312 119.281 100.203 119.484C100.875 119.672 101.664 119.766 102.57 119.766C102.711 119.828 102.781 120.172 102.781 120.797C102.781 120.891 102.766 121.031 102.734 121.219C102.703 121.406 102.648 121.5 102.57 121.5H90.6875C90.5625 121.5 90.5 121.352 90.5 121.055C90.5 120.664 90.6484 120.234 90.9453 119.766C92.2422 119.766 93.2969 119.516 94.1094 119.016C94.9375 118.516 95.7266 117.695 96.4766 116.555L112.508 91.875H116.328L115.695 116.789C115.664 117.961 115.977 118.75 116.633 119.156C117.289 119.562 118.266 119.766 119.562 119.766C119.719 119.828 119.797 120.172 119.797 120.797C119.797 120.922 119.781 121.07 119.75 121.242C119.719 121.414 119.656 121.5 119.562 121.5H107.891C107.781 121.5 107.727 121.352 107.727 121.055C107.727 120.695 107.867 120.266 108.148 119.766C109.398 119.766 110.312 119.508 110.891 118.992C111.484 118.477 111.852 117.836 111.992 117.07C112.133 116.305 112.211 115.234 112.227 113.859C112.227 113.016 112.242 112.375 112.273 111.938ZM112.555 97.1953L104.047 110.484H112.344L112.555 97.1953Z" fill="url(#paint0_linear_13_2)"/>
<path d="M130.016 102.492C128.781 102.492 128.164 103.32 128.164 104.977C128.164 105.523 128.32 106.031 128.633 106.5C128.945 106.969 129.336 107.398 129.805 107.789C130.289 108.18 130.953 108.672 131.797 109.266C132.953 110.078 133.891 110.805 134.609 111.445C135.344 112.086 135.969 112.875 136.484 113.812C137 114.75 137.258 115.828 137.258 117.047C137.258 118.734 136.648 119.977 135.43 120.773C134.227 121.555 132.734 121.945 130.953 121.945C129.781 121.945 128.547 121.766 127.25 121.406C125.953 121.031 124.852 120.477 123.945 119.742C123.055 118.992 122.609 118.086 122.609 117.023C122.609 115.852 123.305 115.266 124.695 115.266C124.727 115.266 124.93 115.586 125.305 116.227C125.695 116.852 126.422 117.602 127.484 118.477C128.562 119.336 130.102 119.805 132.102 119.883C132.711 119.883 133.188 119.688 133.531 119.297C133.875 118.891 134.047 118.227 134.047 117.305C134.047 116.523 133.859 115.82 133.484 115.195C133.109 114.555 132.648 114 132.102 113.531C131.57 113.047 130.836 112.477 129.898 111.82C128.867 111.086 128.039 110.445 127.414 109.898C126.805 109.352 126.281 108.688 125.844 107.906C125.422 107.125 125.211 106.234 125.211 105.234C125.211 104.156 125.531 103.273 126.172 102.586C126.812 101.898 127.617 101.398 128.586 101.086C129.57 100.773 130.586 100.617 131.633 100.617C132.695 100.617 133.773 100.82 134.867 101.227C135.961 101.633 136.875 102.242 137.609 103.055C138.344 103.852 138.711 104.805 138.711 105.914C138.711 106.227 138.594 106.492 138.359 106.711C138.125 106.93 137.836 107.039 137.492 107.039C137.133 107.039 136.789 106.914 136.461 106.664C136.133 106.398 135.703 105.977 135.172 105.398C134.641 104.805 134.148 104.312 133.695 103.922C133.258 103.531 132.727 103.195 132.102 102.914C131.492 102.633 130.797 102.492 130.016 102.492Z" fill="url(#paint1_linear_13_2)"/>
<path d="M141.102 103.359L141.781 101.062H146.984L147.406 99.8906C148.141 97.8125 148.852 96.0781 149.539 94.6875C150.242 93.2812 150.945 92.5781 151.648 92.5781C151.867 92.5781 152.055 92.6406 152.211 92.7656C152.383 92.875 152.508 93.0078 152.586 93.1641C152.68 93.3203 152.711 93.4375 152.68 93.5156C152.617 93.6875 152.523 93.9531 152.398 94.3125C152.273 94.6562 152.109 95.1094 151.906 95.6719C151.5 96.8438 151.117 97.9375 150.758 98.9531C150.398 99.9531 150.148 100.656 150.008 101.062H155.727L155.234 103.383H149.656L146.539 115.453C146.508 115.594 146.422 115.891 146.281 116.344C146.156 116.797 146.094 117.211 146.094 117.586C146.094 118.805 146.516 119.414 147.359 119.414C148.25 119.414 149.211 118.523 150.242 116.742L151.461 114.633L152.984 115.688L151.625 117.891C150.797 119.125 149.906 120.117 148.953 120.867C148 121.617 146.922 121.992 145.719 121.992C144.422 121.992 143.508 121.633 142.977 120.914C142.445 120.18 142.18 119.18 142.18 117.914L142.203 117.891C142.203 116.406 142.516 114.625 143.141 112.547L145.859 103.359H141.102Z" fill="url(#paint2_linear_13_2)"/>
<path d="M158.398 102.633C159.602 101.586 160.914 101.062 162.336 101.062C163.195 101.062 163.836 101.344 164.258 101.906C164.695 102.453 164.914 103.172 164.914 104.062C164.914 105.078 164.703 106.336 164.281 107.836C163.875 109.32 163.234 111.367 162.359 113.977L161.938 115.266L162.383 115.453L164.539 111.609C164.836 111.125 165.18 110.531 165.57 109.828C166.57 108.062 167.477 106.555 168.289 105.305C169.102 104.055 170.031 102.961 171.078 102.023C172.141 101.07 173.219 100.594 174.312 100.594C174.859 100.594 175.359 100.805 175.812 101.227C176.266 101.648 176.492 102.133 176.492 102.68C176.492 103.148 176.32 103.555 175.977 103.898C175.648 104.242 175.242 104.523 174.758 104.742C174.289 104.961 173.672 105.219 172.906 105.516C172.719 105.594 172.461 105.695 172.133 105.82C171.805 105.945 171.539 106.062 171.336 106.172C170.492 106.594 169.484 107.578 168.312 109.125C167.141 110.672 166 112.375 164.891 114.234C163.797 116.094 162.938 117.688 162.312 119.016C161.797 119.969 161.297 120.672 160.812 121.125C160.328 121.578 159.766 121.805 159.125 121.805C158.703 121.805 158.359 121.625 158.094 121.266C157.844 120.906 157.719 120.344 157.719 119.578C157.719 119.109 157.797 118.602 157.953 118.055C158.109 117.508 158.344 116.797 158.656 115.922C158.656 115.922 158.758 115.617 158.961 115.008C159.914 112.133 160.57 109.875 160.93 108.234C161.305 106.578 161.492 105.383 161.492 104.648C161.492 104.414 161.422 104.172 161.281 103.922C161.141 103.656 160.883 103.523 160.508 103.523C159.992 103.523 159.461 103.773 158.914 104.273C158.383 104.758 157.93 105.266 157.555 105.797C157.18 106.328 156.703 107.055 156.125 107.977L154.859 106.781C156.031 105.062 157.211 103.68 158.398 102.633Z" fill="url(#paint3_linear_13_2)"/>
<path d="M188 95.3438C187.641 95.7344 187.156 95.9297 186.547 95.9297C186.094 95.9297 185.633 95.8125 185.164 95.5781C184.711 95.3438 184.336 95 184.039 94.5469C183.742 94.0938 183.594 93.5703 183.594 92.9766C183.594 92.2578 183.789 91.7109 184.18 91.3359C184.586 90.9609 185.102 90.7734 185.727 90.7734C186.43 90.7734 187.047 91.0078 187.578 91.4766C188.125 91.9453 188.445 92.6016 188.539 93.4453C188.539 94.3203 188.359 94.9531 188 95.3438ZM186.898 116.602L188.234 114.586L189.758 115.641L188.328 117.727C187.453 118.992 186.523 120.016 185.539 120.797C184.555 121.562 183.438 121.945 182.188 121.945C181.438 121.945 180.781 121.758 180.219 121.383C179.672 120.992 179.242 120.469 178.93 119.812C178.633 119.156 178.484 118.445 178.484 117.68C178.484 116.961 178.578 116.219 178.766 115.453C178.953 114.688 179.227 113.812 179.586 112.828L181.953 106.172C181.984 106.047 182.07 105.781 182.211 105.375C182.352 104.953 182.422 104.562 182.422 104.203C182.422 103.719 182.305 103.336 182.07 103.055C181.852 102.758 181.531 102.609 181.109 102.609C180.688 102.609 180.148 102.938 179.492 103.594C178.852 104.25 177.867 105.492 176.539 107.32L175.32 106.406C176.32 105.062 177.156 104.008 177.828 103.242C178.5 102.461 179.219 101.828 179.984 101.344C180.75 100.859 181.57 100.617 182.445 100.617C184.727 100.617 185.867 101.93 185.867 104.555C185.867 105.664 185.68 106.805 185.305 107.977L182.844 115.547C182.75 115.781 182.664 116.102 182.586 116.508C182.508 116.898 182.469 117.289 182.469 117.68C182.469 118.133 182.555 118.531 182.727 118.875C182.914 119.203 183.25 119.367 183.734 119.367C184.203 119.367 184.695 119.141 185.211 118.688C185.727 118.219 186.289 117.523 186.898 116.602Z" fill="url(#paint4_linear_13_2)"/>
<path d="M209.047 118.758C209.328 119.164 209.75 119.367 210.312 119.367C210.797 119.367 211.273 119.188 211.742 118.828C212.211 118.469 212.672 117.992 213.125 117.398C213.594 116.805 214.234 115.93 215.047 114.773C215.219 114.555 215.477 114.195 215.82 113.695L217.227 114.797C217.055 115.062 216.953 115.211 216.922 115.242C216 116.633 215.18 117.781 214.461 118.688C213.742 119.594 212.898 120.375 211.93 121.031C210.977 121.672 209.953 121.992 208.859 121.992C207.891 121.992 207.148 121.648 206.633 120.961C206.133 120.273 205.883 119.281 205.883 117.984C205.883 117.625 205.906 117.242 205.953 116.836C206 116.414 206.031 116.148 206.047 116.039C206.078 115.898 206.109 115.688 206.141 115.406C205.422 116.734 204.695 117.867 203.961 118.805C203.227 119.742 202.336 120.5 201.289 121.078C200.242 121.656 199.016 121.945 197.609 121.945C196.281 121.945 195.148 121.5 194.211 120.609C193.273 119.703 192.57 118.586 192.102 117.258C191.648 115.914 191.422 114.586 191.422 113.273C191.422 111.102 191.898 109.047 192.852 107.109C193.82 105.156 195.148 103.586 196.836 102.398C198.523 101.211 200.391 100.617 202.438 100.617C203.141 100.617 203.883 100.805 204.664 101.18C205.445 101.539 206.125 102.078 206.703 102.797C207.297 103.5 207.664 104.352 207.805 105.352C208.133 104.148 208.648 102.195 209.352 99.4922C210.07 96.7734 210.594 94.7969 210.922 93.5625L211.062 93.0469H207.008C206.758 93.0469 206.594 93.0234 206.516 92.9766C206.438 92.9297 206.398 92.8594 206.398 92.7656C206.398 92.5469 206.477 92.2266 206.633 91.8047C206.789 91.3828 206.914 91.1641 207.008 91.1484L213.969 90.3047C214.078 90.2891 214.227 90.2812 214.414 90.2812C214.758 90.2812 214.977 90.3281 215.07 90.4219C215.164 90.5156 215.211 90.7344 215.211 91.0781C215.211 91.4375 215.094 92.0703 214.859 92.9766L209.117 114.562C208.961 115.125 208.836 115.617 208.742 116.039C208.664 116.445 208.625 116.883 208.625 117.352C208.625 117.883 208.766 118.352 209.047 118.758ZM205.719 113.344C206.469 111.609 206.844 110.031 206.844 108.609C206.844 106.797 206.547 105.445 205.953 104.555C205.375 103.664 204.789 103.117 204.195 102.914C203.617 102.695 203.156 102.586 202.812 102.586C201.453 102.586 200.227 103.148 199.133 104.273C198.055 105.383 197.203 106.812 196.578 108.562C195.969 110.312 195.664 112.086 195.664 113.883C195.664 115.367 195.945 116.68 196.508 117.82C197.086 118.945 198.008 119.508 199.273 119.508C200.492 119.508 201.688 118.914 202.859 117.727C204.031 116.523 204.984 115.062 205.719 113.344Z" fill="url(#paint5_linear_13_2)"/>
<path d="M228.57 111.82C228.914 111.43 229.352 111.234 229.883 111.234C230.352 111.234 230.734 111.367 231.031 111.633C231.328 111.883 231.562 112.203 231.734 112.594C231.922 112.984 232.133 113.531 232.367 114.234C232.742 115.391 233.141 116.344 233.562 117.094C234 117.844 234.695 118.5 235.648 119.062C236.617 119.609 237.922 119.883 239.562 119.883C241.328 119.883 242.68 119.461 243.617 118.617C244.57 117.758 245.047 116.453 245.047 114.703C245.047 113.781 244.797 112.898 244.297 112.055C243.797 111.195 243.172 110.414 242.422 109.711C241.688 108.992 240.688 108.102 239.422 107.039C238.031 105.898 236.914 104.914 236.07 104.086C235.227 103.258 234.508 102.32 233.914 101.273C233.336 100.227 233.047 99.1172 233.047 97.9453C233.047 96.3828 233.477 95.0859 234.336 94.0547C235.211 93.0078 236.328 92.2422 237.688 91.7578C239.062 91.2578 240.516 91.0078 242.047 91.0078C243.547 91.0078 245.047 91.2578 246.547 91.7578C248.047 92.2578 249.289 93.0391 250.273 94.1016C251.273 95.1484 251.773 96.4453 251.773 97.9922C251.773 98.5234 251.602 98.9844 251.258 99.375C250.914 99.75 250.477 99.9375 249.945 99.9375C249.492 99.9375 249.125 99.8359 248.844 99.6328C248.578 99.4297 248.367 99.1797 248.211 98.8828C248.055 98.5859 247.875 98.1562 247.672 97.5938C247.359 96.7344 247.023 96.0234 246.664 95.4609C246.305 94.8984 245.719 94.4141 244.906 94.0078C244.094 93.6016 242.977 93.3984 241.555 93.3984C240.211 93.3984 239.117 93.7891 238.273 94.5703C237.445 95.3516 237.031 96.4141 237.031 97.7578C237.031 98.6484 237.273 99.5078 237.758 100.336C238.242 101.148 238.844 101.898 239.562 102.586C240.281 103.258 241.266 104.117 242.516 105.164C243.906 106.305 245.031 107.297 245.891 108.141C246.766 108.984 247.5 109.945 248.094 111.023C248.703 112.102 249.008 113.258 249.008 114.492C249.008 116.211 248.57 117.656 247.695 118.828C246.836 119.984 245.688 120.844 244.25 121.406C242.828 121.969 241.273 122.25 239.586 122.25C237.727 122.25 235.906 121.906 234.125 121.219C232.359 120.516 230.906 119.477 229.766 118.102C228.625 116.727 228.055 115.086 228.055 113.18C228.055 112.648 228.227 112.195 228.57 111.82Z" fill="url(#paint6_linear_13_2)"/>
<path d="M276.336 114.82L276.781 114.234L278.047 115.312C276.859 117.078 275.586 118.633 274.227 119.977C272.883 121.32 271.477 121.992 270.008 121.992C269.711 121.992 269.352 121.891 268.93 121.688C268.523 121.484 268.141 121.078 267.781 120.469C267.438 119.844 267.266 118.969 267.266 117.844C267.266 117.562 267.367 116.727 267.57 115.336C265.633 119.742 262.875 121.945 259.297 121.945C258.188 121.945 257.156 121.664 256.203 121.102C255.266 120.523 254.508 119.641 253.93 118.453C253.352 117.25 253.062 115.75 253.062 113.953C253.062 111.719 253.547 109.578 254.516 107.531C255.5 105.469 256.82 103.805 258.477 102.539C260.148 101.258 261.969 100.617 263.938 100.617C265.188 100.617 266.227 100.875 267.055 101.391C267.883 101.906 268.5 102.531 268.906 103.266C269.328 104 269.562 104.695 269.609 105.352L270.547 102.281C270.656 101.953 270.812 101.703 271.016 101.531C271.219 101.344 271.492 101.25 271.836 101.25C272.383 101.25 272.844 101.406 273.219 101.719C273.609 102.031 273.805 102.414 273.805 102.867C273.805 102.961 273.766 103.164 273.688 103.477L271.531 110.484C271.109 111.828 270.773 113.023 270.523 114.07C270.289 115.117 270.172 116.023 270.172 116.789C270.172 117.43 270.281 117.961 270.5 118.383C270.734 118.789 271.109 118.992 271.625 118.992C272.312 118.992 273.039 118.602 273.805 117.82C274.586 117.023 275.43 116.023 276.336 114.82ZM267.406 113.016C268.203 111.203 268.602 109.477 268.602 107.836C268.602 106.977 268.406 106.164 268.016 105.398C267.641 104.617 267.117 103.992 266.445 103.523C265.789 103.055 265.07 102.82 264.289 102.82C263.273 102.82 262.188 103.297 261.031 104.25C259.875 105.203 258.906 106.492 258.125 108.117C257.359 109.727 256.977 111.477 256.977 113.367C256.977 115.305 257.297 116.789 257.938 117.82C258.594 118.852 259.461 119.367 260.539 119.367C261.836 119.367 263.109 118.766 264.359 117.562C265.609 116.344 266.625 114.828 267.406 113.016Z" fill="url(#paint7_linear_13_2)"/>
<path d="M277.672 118.125C278.047 117.828 278.539 117.68 279.148 117.68C279.461 117.68 279.906 117.797 280.484 118.031C280.844 118.156 281.141 118.258 281.375 118.336C281.625 118.398 281.883 118.43 282.148 118.43C282.805 118.43 283.523 118.016 284.305 117.188C285.102 116.359 285.805 115.477 286.414 114.539C287.023 113.602 287.703 112.5 288.453 111.234C288 109.859 287.641 108.711 287.375 107.789L287.188 107.133C286.875 105.961 286.508 104.984 286.086 104.203C285.68 103.406 285.117 103.008 284.398 103.008C283.617 103.008 282.984 103.266 282.5 103.781C282.031 104.281 281.578 104.945 281.141 105.773C280.938 106.148 280.789 106.406 280.695 106.547C280.602 106.688 280.5 106.758 280.391 106.758C280.109 106.758 279.82 106.641 279.523 106.406C279.242 106.156 279.102 105.938 279.102 105.75C279.102 105.719 279.117 105.68 279.148 105.633C279.852 104.602 280.484 103.75 281.047 103.078C281.609 102.391 282.266 101.812 283.016 101.344C283.781 100.859 284.609 100.617 285.5 100.617C286.672 100.617 287.648 101.156 288.43 102.234C289.211 103.312 289.797 104.469 290.188 105.703C290.594 106.938 290.797 107.672 290.797 107.906C291.172 107.438 291.891 106.516 292.953 105.141C294.016 103.766 294.695 102.867 294.992 102.445C295.43 101.914 295.984 101.484 296.656 101.156C297.344 100.812 298.047 100.641 298.766 100.641C299.344 100.641 299.93 100.742 300.523 100.945C301.117 101.148 301.609 101.453 302 101.859C302.406 102.266 302.609 102.766 302.609 103.359C302.609 103.75 302.422 104.086 302.047 104.367C301.672 104.633 301.242 104.766 300.758 104.766C300.492 104.766 300.047 104.672 299.422 104.484C298.672 104.266 298.07 104.156 297.617 104.156C297.352 104.156 296.758 104.633 295.836 105.586C294.914 106.539 293.984 107.578 293.047 108.703C292.125 109.812 291.664 110.414 291.664 110.508C291.664 110.805 291.867 111.609 292.273 112.922C292.695 114.234 292.938 114.977 293 115.148L293.234 115.852L293.422 116.344C293.625 116.922 293.82 117.406 294.008 117.797C294.195 118.172 294.461 118.508 294.805 118.805C295.164 119.102 295.609 119.25 296.141 119.25C297.062 119.25 297.859 118.953 298.531 118.359C299.219 117.766 299.93 116.969 300.664 115.969L300.969 115.57L302.023 116.484C302.039 116.531 302.047 116.578 302.047 116.625C302.047 116.656 302.047 116.68 302.047 116.695C300.297 119.008 298.805 120.461 297.57 121.055C296.352 121.648 295.492 121.945 294.992 121.945C293.93 121.945 293.016 121.484 292.25 120.562C291.484 119.625 290.906 118.656 290.516 117.656C290.125 116.641 289.719 115.422 289.297 114C288.859 114.672 288.102 115.688 287.023 117.047C285.945 118.391 285.047 119.445 284.328 120.211C283.875 120.773 283.273 121.203 282.523 121.5C281.789 121.797 280.984 121.945 280.109 121.945C279.625 121.945 279.148 121.836 278.68 121.617C278.211 121.398 277.828 121.086 277.531 120.68C277.234 120.273 277.086 119.812 277.086 119.297C277.086 118.797 277.281 118.406 277.672 118.125Z" fill="url(#paint8_linear_13_2)"/>
<path d="M315.125 90.8203C315.094 91.2734 314.977 91.9062 314.773 92.7188L311.469 104.742C312.484 103.273 313.633 102.219 314.914 101.578C316.211 100.938 317.5 100.617 318.781 100.617C320.047 100.617 321.18 100.898 322.18 101.461C323.195 102.023 323.992 102.828 324.57 103.875C325.148 104.906 325.438 106.117 325.438 107.508C325.438 110.07 324.852 112.461 323.68 114.68C322.508 116.898 320.945 118.664 318.992 119.977C317.055 121.289 314.992 121.945 312.805 121.945C310.617 121.945 308.891 121.367 307.625 120.211C306.359 119.055 305.727 117.156 305.727 114.516C305.727 113.141 305.898 111.664 306.242 110.086C306.602 108.508 307.305 105.836 308.352 102.07C308.977 99.8828 309.82 96.7891 310.883 92.7891L307.109 92.5547C306.734 92.4922 306.547 92.2578 306.547 91.8516C306.547 91.5547 306.758 91.3203 307.18 91.1484C307.602 90.9609 308.188 90.8125 308.938 90.7031C309.688 90.5781 310.891 90.4141 312.547 90.2109L313.859 90.0469C314.078 90.0156 314.234 90 314.328 90C314.594 90 314.789 90.0625 314.914 90.1875C315.055 90.3125 315.125 90.5234 315.125 90.8203ZM320.562 112.758C321.297 110.852 321.664 109.125 321.664 107.578C321.664 106.703 321.523 105.875 321.242 105.094C320.977 104.312 320.578 103.68 320.047 103.195C319.516 102.695 318.875 102.445 318.125 102.445C316.375 102.445 314.867 103.062 313.602 104.297C312.336 105.516 311.375 107.07 310.719 108.961C310.078 110.836 309.758 112.75 309.758 114.703C309.758 116.5 310.062 117.766 310.672 118.5C311.297 119.219 312.172 119.578 313.297 119.578C314.859 119.578 316.273 118.914 317.539 117.586C318.82 116.258 319.828 114.648 320.562 112.758Z" fill="url(#paint9_linear_13_2)"/>
<path d="M343.578 102.328C343.578 101.188 344.156 100.617 345.312 100.617C346.172 100.617 346.875 100.953 347.422 101.625C347.969 102.281 348.359 103.062 348.594 103.969C348.828 104.859 348.945 105.672 348.945 106.406L348.992 106.359C348.992 109.281 347.914 112.695 345.758 116.602C343.617 120.492 340.984 123.828 337.859 126.609C334.75 129.406 331.852 130.805 329.164 130.805C328.492 130.805 327.797 130.688 327.078 130.453C326.359 130.219 325.758 129.867 325.273 129.398C324.773 128.93 324.523 128.359 324.523 127.688C324.523 127.172 324.781 126.781 325.297 126.516C325.812 126.25 326.438 126.117 327.172 126.117C327.656 126.117 328.328 126.25 329.188 126.516C329.688 126.656 330.102 126.758 330.43 126.82C330.773 126.898 331.109 126.938 331.438 126.938C332.062 126.938 332.625 126.812 333.125 126.562C333.625 126.328 334.234 125.883 334.953 125.227C335.672 124.57 336.727 123.508 338.117 122.039C337.852 121.164 337.297 119.352 336.453 116.602C335.625 113.836 334.945 111.523 334.414 109.664C333.836 107.664 333.312 106.172 332.844 105.188C332.375 104.188 331.93 103.688 331.508 103.688C330.914 103.688 330.336 104.023 329.773 104.695C329.211 105.352 328.617 106.203 327.992 107.25C327.773 107.641 327.609 107.906 327.5 108.047L326.281 107.016C327.141 105.562 327.867 104.414 328.461 103.57C329.07 102.727 329.742 102.023 330.477 101.461C331.227 100.898 332.047 100.617 332.938 100.617C333.672 100.617 334.305 100.93 334.836 101.555C335.367 102.164 335.781 102.945 336.078 103.898L338.469 111.867C339.672 115.961 340.414 118.453 340.695 119.344C341.164 118.672 341.773 117.719 342.523 116.484C343.289 115.234 343.977 113.969 344.586 112.688C345.211 111.406 345.523 110.422 345.523 109.734C345.523 109.047 345.43 108.406 345.242 107.812C345.07 107.219 344.812 106.5 344.469 105.656C344.172 104.906 343.945 104.297 343.789 103.828C343.648 103.344 343.578 102.844 343.578 102.328Z" fill="url(#paint10_linear_13_2)"/>
</g>
<defs>
<filter id="filter0_d_13_2" x="0.5" y="0" width="458.492" height="240.805" filterUnits="userSpaceOnUse" color-interpolation-filters="sRGB">
<feFlood flood-opacity="0" result="BackgroundImageFix"/>
<feColorMatrix in="SourceAlpha" type="matrix" values="0 0 0 0 0 0 0 0 0 0 0 0 0 0 0 0 0 0 127 0" result="hardAlpha"/>
<feOffset dx="10" dy="10"/>
<feGaussianBlur stdDeviation="50"/>
<feColorMatrix type="matrix" values="0 0 0 0 0 0 0 0 0 0 0 0 0 0 0 0 0 0 0.5 0"/>
<feBlend mode="normal" in2="BackgroundImageFix" result="effect1_dropShadow_13_2"/>
<feBlend mode="normal" in="SourceGraphic" in2="effect1_dropShadow_13_2" result="shape"/>
</filter>
<linearGradient id="paint0_linear_13_2" x1="221.586" y1="199" x2="230.382" y2="56.4103" gradientUnits="userSpaceOnUse">
<stop offset="0.430155" stop-color="#303982"/>
<stop offset="0.872083" stop-color="#49D8FC" stop-opacity="0.71"/>
</linearGradient>
<linearGradient id="paint1_linear_13_2" x1="221.586" y1="199" x2="230.382" y2="56.4103" gradientUnits="userSpaceOnUse">
<stop offset="0.430155" stop-color="#303982"/>
<stop offset="0.872083" stop-color="#49D8FC" stop-opacity="0.71"/>
</linearGradient>
<linearGradient id="paint2_linear_13_2" x1="221.586" y1="199" x2="230.382" y2="56.4103" gradientUnits="userSpaceOnUse">
<stop offset="0.430155" stop-color="#303982"/>
<stop offset="0.872083" stop-color="#49D8FC" stop-opacity="0.71"/>
</linearGradient>
<linearGradient id="paint3_linear_13_2" x1="221.586" y1="199" x2="230.382" y2="56.4103" gradientUnits="userSpaceOnUse">
<stop offset="0.430155" stop-color="#303982"/>
<stop offset="0.872083" stop-color="#49D8FC" stop-opacity="0.71"/>
</linearGradient>
<linearGradient id="paint4_linear_13_2" x1="221.586" y1="199" x2="230.382" y2="56.4103" gradientUnits="userSpaceOnUse">
<stop offset="0.430155" stop-color="#303982"/>
<stop offset="0.872083" stop-color="#49D8FC" stop-opacity="0.71"/>
</linearGradient>
<linearGradient id="paint5_linear_13_2" x1="221.586" y1="199" x2="230.382" y2="56.4103" gradientUnits="userSpaceOnUse">
<stop offset="0.430155" stop-color="#303982"/>
<stop offset="0.872083" stop-color="#49D8FC" stop-opacity="0.71"/>
</linearGradient>
<linearGradient id="paint6_linear_13_2" x1="221.586" y1="199" x2="230.382" y2="56.4103" gradientUnits="userSpaceOnUse">
<stop offset="0.430155" stop-color="#303982"/>
<stop offset="0.872083" stop-color="#49D8FC" stop-opacity="0.71"/>
</linearGradient>
<linearGradient id="paint7_linear_13_2" x1="221.586" y1="199" x2="230.382" y2="56.4103" gradientUnits="userSpaceOnUse">
<stop offset="0.430155" stop-color="#303982"/>
<stop offset="0.872083" stop-color="#49D8FC" stop-opacity="0.71"/>
</linearGradient>
<linearGradient id="paint8_linear_13_2" x1="221.586" y1="199" x2="230.382" y2="56.4103" gradientUnits="userSpaceOnUse">
<stop offset="0.430155" stop-color="#303982"/>
<stop offset="0.872083" stop-color="#49D8FC" stop-opacity="0.71"/>
</linearGradient>
<linearGradient id="paint9_linear_13_2" x1="221.586" y1="199" x2="230.382" y2="56.4103" gradientUnits="userSpaceOnUse">
<stop offset="0.430155" stop-color="#303982"/>
<stop offset="0.872083" stop-color="#49D8FC" stop-opacity="0.71"/>
</linearGradient>
<linearGradient id="paint10_linear_13_2" x1="221.586" y1="199" x2="230.382" y2="56.4103" gradientUnits="userSpaceOnUse">
<stop offset="0.430155" stop-color="#303982"/>
<stop offset="0.872083" stop-color="#49D8FC" stop-opacity="0.71"/>
</linearGradient>
</defs>
</svg>
