<svg width="212" height="321" viewBox="0 0 212 321" fill="none" xmlns="http://www.w3.org/2000/svg">
<rect width="212" height="321" fill="#F5F5F5"/>
<path d="M134.752 220.219C135.732 219.812 136.675 219.608 137.58 219.608C138.334 219.608 139.11 219.887 139.91 220.445C140.347 220.747 140.837 221.335 141.38 222.21C141.742 222.813 142.202 223.906 142.76 225.49L145.52 233.317C146.153 235.066 146.794 236.453 147.442 237.479C148.106 238.519 148.709 239.296 149.252 239.809C149.795 240.336 150.36 240.706 150.949 240.917C151.537 241.128 152.019 241.234 152.396 241.234C152.788 241.234 153.135 241.204 153.437 241.143L153.459 241.369C152.736 241.611 152.027 241.731 151.333 241.731C150.639 241.731 149.946 241.55 149.252 241.189C148.558 240.842 147.91 240.352 147.307 239.718C146.01 238.406 144.909 236.408 144.004 233.724L143.122 231.145H136.924L135.363 235.171C135.287 235.352 135.25 235.533 135.25 235.714C135.25 235.895 135.325 236.091 135.476 236.302C135.642 236.499 135.891 236.597 136.222 236.597H136.403V236.823H131.857V236.597H132.06C132.422 236.597 132.777 236.491 133.123 236.28C133.47 236.054 133.757 235.722 133.983 235.285L139.593 221.848C138.779 220.687 137.768 220.106 136.562 220.106C136.019 220.106 135.438 220.219 134.82 220.445L134.752 220.219ZM137.173 230.466H142.896L141.109 225.196C140.762 224.185 140.445 223.394 140.158 222.821L137.173 230.466Z" fill="black"/>
<path d="M137.678 245.88L138.573 244.957C139.166 245.39 139.77 245.607 140.385 245.607C140.763 245.607 141.082 245.509 141.342 245.313C141.602 245.112 141.732 244.866 141.732 244.575C141.732 244.251 141.474 243.809 140.959 243.248L140.337 242.565C139.731 241.9 139.428 241.344 139.428 240.897C139.428 240.277 139.722 239.728 140.31 239.249C140.898 238.766 141.57 238.525 142.326 238.525C142.741 238.525 143.206 238.611 143.721 238.785L143.42 240.295H142.989L143.01 240.179C143.019 240.138 143.024 240.09 143.024 240.036C143.024 239.42 142.627 239.113 141.834 239.113C140.945 239.113 140.501 239.468 140.501 240.179C140.501 240.539 140.765 241.018 141.294 241.615L141.855 242.237C142.465 242.925 142.771 243.49 142.771 243.932C142.771 244.543 142.447 245.087 141.8 245.566C141.153 246.044 140.417 246.284 139.592 246.284C139.013 246.284 138.375 246.149 137.678 245.88Z" fill="black"/>
<path d="M146.896 247.413H145.107L145.646 246.834H147.006L147.451 244.624L149.068 244.233L148.553 246.834H151.498L150.857 247.522C150.185 247.449 149.589 247.413 149.068 247.413H148.435L147.373 252.764C147.264 253.316 147.209 253.704 147.209 253.928C147.209 254.34 147.391 254.545 147.756 254.545C148.318 254.545 149.087 254.129 150.06 253.295L149.92 254.014C148.909 255.014 147.938 255.514 147.006 255.514C146.12 255.514 145.678 255.025 145.678 254.045C145.678 253.696 145.735 253.233 145.85 252.655L146.896 247.413Z" fill="black"/>
<path d="M155.217 258.63L155.796 256.224L156.553 252.404C156.631 252.018 156.671 251.685 156.671 251.404C156.671 250.956 156.514 250.732 156.202 250.732C155.65 250.732 154.861 251.32 153.835 252.498L153.975 251.802C155.178 250.505 156.223 249.857 157.108 249.857C157.858 249.857 158.233 250.287 158.233 251.146C158.233 251.526 158.186 251.948 158.092 252.412L157.717 254.294H157.819C158.439 252.992 159.171 251.93 160.014 251.107C160.863 250.279 161.639 249.865 162.342 249.865C162.707 249.865 163.032 249.945 163.319 250.107L162.28 251.513C161.973 251.31 161.712 251.208 161.499 251.208C160.483 251.208 159.131 252.701 157.444 255.685L156.874 258.537L155.217 258.63Z" fill="black"/>
<path d="M173.395 254.231L173.254 254.958C172.114 256.182 171.09 256.794 170.184 256.794C169.434 256.794 169.059 256.401 169.059 255.614C169.059 255.349 169.119 254.911 169.239 254.302L169.778 251.583C169.923 250.812 169.996 250.299 169.996 250.044C169.996 249.606 169.827 249.388 169.489 249.388C169.254 249.388 168.835 249.479 168.231 249.661L168.324 249.177L172.145 247.927L171.551 250.427L170.785 254.286C170.666 254.89 170.606 255.276 170.606 255.442C170.606 255.781 170.759 255.95 171.067 255.95C171.582 255.95 172.358 255.377 173.395 254.231ZM170.528 246.567L171.051 245.505L173.254 244.067L172.582 245.505L170.528 246.567Z" fill="black"/>
<path d="M182.286 243.757H182.145C181.546 245.07 180.835 246.137 180.012 246.96C179.19 247.783 178.419 248.195 177.7 248.195C176.596 248.195 176.044 247.504 176.044 246.124C176.044 245.187 176.312 244.205 176.848 243.179C177.39 242.153 178.088 241.291 178.942 240.593C179.515 240.129 180.088 239.82 180.661 239.663C181.234 239.502 182.065 239.421 183.153 239.421C183.46 238.39 183.781 237.603 184.114 237.062C184.447 236.515 184.916 236.004 185.52 235.531C186.551 234.718 187.69 234.312 188.934 234.312C189.45 234.312 189.919 234.366 190.341 234.476L189.27 235.585C188.65 235.314 188.124 235.179 187.692 235.179C186.859 235.179 186.231 235.484 185.809 236.093C185.387 236.697 185.01 237.833 184.676 239.499L183.45 245.687C183.325 246.291 183.262 246.676 183.262 246.843C183.262 247.182 183.416 247.351 183.723 247.351C184.244 247.351 185.023 246.778 186.059 245.632L185.911 246.359C184.775 247.583 183.755 248.195 182.848 248.195C182.093 248.195 181.716 247.801 181.716 247.015C181.716 246.76 181.778 246.317 181.903 245.687L182.286 243.757ZM182.911 240.632C182.265 240.34 181.614 240.195 180.958 240.195C180.015 240.195 179.26 240.794 178.692 241.991C178.02 243.408 177.684 244.682 177.684 245.812C177.684 246.629 177.926 247.038 178.411 247.038C178.859 247.038 179.502 246.567 180.341 245.624C181.184 244.682 181.924 243.606 182.559 242.398L182.911 240.632Z" fill="black"/>
<path d="M136.25 209.836C130.224 217.585 127.174 225.988 127.1 235.047C127.012 245.825 131.473 254.232 140.483 260.269C145.728 263.866 151.676 265.692 158.326 265.746C165.092 265.802 170.95 264.531 175.902 261.934C185.229 257.194 190.512 249.152 191.751 237.81C191.873 237.008 191.936 236.206 191.943 235.404C191.978 231.161 190.811 226.565 188.443 221.615C186.19 216.665 182.443 212.105 177.203 207.934L146.443 183.259C139.721 177.929 136.394 171.079 136.462 162.709C136.53 154.338 139.282 147.308 144.718 141.619C150.155 135.815 157.46 132.951 166.633 133.026C171.22 133.063 176.203 133.677 181.583 134.868L188.462 134.924L188.634 156.082L186.914 156.068C186.844 150.563 184.873 146.247 180.999 143.119C177.242 139.878 172.439 138.233 166.591 138.186C160.858 138.139 156.026 140.049 152.096 143.916C148.166 147.668 146.177 152.582 146.127 158.659C146.079 164.622 148.561 169.63 153.573 173.685L185.187 199.055C197.719 209.134 203.927 221.225 203.812 235.328C203.726 245.877 199.467 254.902 191.035 262.401C183.758 268.878 174.099 272.067 162.06 271.969C154.721 271.909 148.197 270.48 142.486 267.681C131.749 262.548 125.341 253.896 123.261 241.724C122.932 239.886 122.779 237.592 122.801 234.84C122.825 231.973 123.659 228.138 125.303 223.336C126.949 218.418 130.085 213.513 134.712 208.62L136.25 209.836Z" fill="#08466D"/>
<path d="M22.3469 41.9976C29.8002 38.9016 36.9669 37.3536 43.8469 37.3536C49.5802 37.3536 55.4855 39.4749 61.5629 43.7176C64.8882 46.0109 68.6149 50.4829 72.7429 57.1336C75.4949 61.7203 78.9922 70.0336 83.2349 82.0736L104.219 141.586C109.035 154.887 113.908 165.436 118.839 173.234C123.884 181.146 128.471 187.051 132.599 190.95C136.727 194.963 141.027 197.772 145.499 199.378C149.971 200.983 153.64 201.786 156.507 201.786C159.488 201.786 162.126 201.556 164.419 201.098L164.591 202.818C159.087 204.652 153.698 205.57 148.423 205.57C143.148 205.57 137.874 204.194 132.599 201.442C127.324 198.804 122.394 195.078 117.807 190.262C107.946 180.286 99.5749 165.092 92.6949 144.682L85.9869 125.074H38.8589L26.9909 155.69C26.4175 157.066 26.1309 158.442 26.1309 159.818C26.1309 161.194 26.7042 162.684 27.8509 164.29C29.1122 165.78 31.0042 166.526 33.5269 166.526H34.9029V168.246H0.330876V166.526H1.87888C4.63088 166.526 7.32554 165.723 9.96288 164.118C12.6002 162.398 14.7789 159.875 16.4989 156.55L59.1549 54.3816C52.9629 45.5523 45.2802 41.1376 36.1069 41.1376C31.9789 41.1376 27.5642 41.9976 22.8629 43.7176L22.3469 41.9976ZM40.7509 119.914H84.2669L70.6789 79.8376C68.0415 72.1549 65.6335 66.1349 63.4549 61.7776L40.7509 119.914Z" fill="#0097B2"/>
</svg>
