<svg width="451" height="241" viewBox="0 0 451 241" fill="none" xmlns="http://www.w3.org/2000/svg">
<g filter="url(#filter0_d_13_2)">
<path d="M111.558 111.938H102.423L101.97 112.617C101.063 114.008 100.323 115.18 99.7483 116.133C99.1892 117.07 98.9096 117.742 98.9096 118.148C98.9096 118.836 99.2345 119.281 99.8844 119.484C100.534 119.672 101.297 119.766 102.174 119.766C102.31 119.828 102.378 120.172 102.378 120.797C102.378 120.891 102.363 121.031 102.332 121.219C102.302 121.406 102.249 121.5 102.174 121.5H90.6813C90.5604 121.5 90.5 121.352 90.5 121.055C90.5 120.664 90.6436 120.234 90.9307 119.766C92.185 119.766 93.205 119.516 93.9908 119.016C94.7917 118.516 95.5549 117.695 96.2802 116.555L111.785 91.875H115.48L114.868 116.789C114.837 117.961 115.14 118.75 115.774 119.156C116.409 119.562 117.353 119.766 118.608 119.766C118.759 119.828 118.834 120.172 118.834 120.797C118.834 120.922 118.819 121.07 118.789 121.242C118.759 121.414 118.698 121.5 118.608 121.5H107.319C107.214 121.5 107.161 121.352 107.161 121.055C107.161 120.695 107.297 120.266 107.569 119.766C108.778 119.766 109.662 119.508 110.221 118.992C110.795 118.477 111.15 117.836 111.286 117.07C111.422 116.305 111.498 115.234 111.513 113.859C111.513 113.016 111.528 112.375 111.558 111.938ZM111.83 97.1953L103.602 110.484H111.626L111.83 97.1953Z" fill="url(#paint0_linear_13_2)"/>
<path d="M128.717 102.492C127.524 102.492 126.927 103.32 126.927 104.977C126.927 105.523 127.078 106.031 127.38 106.5C127.682 106.969 128.06 107.398 128.513 107.789C128.982 108.18 129.624 108.672 130.44 109.266C131.558 110.078 132.465 110.805 133.16 111.445C133.871 112.086 134.475 112.875 134.974 113.812C135.472 114.75 135.722 115.828 135.722 117.047C135.722 118.734 135.132 119.977 133.954 120.773C132.79 121.555 131.347 121.945 129.624 121.945C128.491 121.945 127.297 121.766 126.043 121.406C124.788 121.031 123.723 120.477 122.847 119.742C121.985 118.992 121.554 118.086 121.554 117.023C121.554 115.852 122.227 115.266 123.572 115.266C123.602 115.266 123.799 115.586 124.161 116.227C124.539 116.852 125.242 117.602 126.269 118.477C127.312 119.336 128.801 119.805 130.735 119.883C131.324 119.883 131.785 119.688 132.118 119.297C132.45 118.891 132.616 118.227 132.616 117.305C132.616 116.523 132.435 115.82 132.072 115.195C131.71 114.555 131.264 114 130.735 113.531C130.221 113.047 129.511 112.477 128.604 111.82C127.607 111.086 126.806 110.445 126.201 109.898C125.612 109.352 125.106 108.688 124.683 107.906C124.275 107.125 124.071 106.234 124.071 105.234C124.071 104.156 124.38 103.273 125 102.586C125.62 101.898 126.398 101.398 127.335 101.086C128.287 100.773 129.269 100.617 130.281 100.617C131.309 100.617 132.352 100.82 133.41 101.227C134.467 101.633 135.351 102.242 136.062 103.055C136.772 103.852 137.127 104.805 137.127 105.914C137.127 106.227 137.014 106.492 136.787 106.711C136.56 106.93 136.281 107.039 135.948 107.039C135.601 107.039 135.268 106.914 134.951 106.664C134.634 106.398 134.218 105.977 133.704 105.398C133.19 104.805 132.714 104.312 132.276 103.922C131.853 103.531 131.339 103.195 130.735 102.914C130.145 102.633 129.473 102.492 128.717 102.492Z" fill="url(#paint1_linear_13_2)"/>
<path d="M139.439 103.359L140.097 101.062H145.129L145.537 99.8906C146.247 97.8125 146.935 96.0781 147.599 94.6875C148.279 93.2812 148.96 92.5781 149.64 92.5781C149.851 92.5781 150.032 92.6406 150.184 92.7656C150.35 92.875 150.471 93.0078 150.546 93.1641C150.637 93.3203 150.667 93.4375 150.637 93.5156C150.576 93.6875 150.486 93.9531 150.365 94.3125C150.244 94.6562 150.085 95.1094 149.889 95.6719C149.496 96.8438 149.126 97.9375 148.778 98.9531C148.431 99.9531 148.189 100.656 148.053 101.062H153.584L153.108 103.383H147.713L144.698 115.453C144.668 115.594 144.585 115.891 144.449 116.344C144.328 116.797 144.267 117.211 144.267 117.586C144.267 118.805 144.675 119.414 145.491 119.414C146.353 119.414 147.282 118.523 148.279 116.742L149.458 114.633L150.932 115.688L149.617 117.891C148.816 119.125 147.955 120.117 147.033 120.867C146.111 121.617 145.068 121.992 143.905 121.992C142.65 121.992 141.766 121.633 141.253 120.914C140.739 120.18 140.482 119.18 140.482 117.914L140.505 117.891C140.505 116.406 140.807 114.625 141.411 112.547L144.041 103.359H139.439Z" fill="url(#paint2_linear_13_2)"/>
<path d="M156.168 102.633C157.331 101.586 158.601 101.062 159.976 101.062C160.807 101.062 161.427 101.344 161.835 101.906C162.258 102.453 162.469 103.172 162.469 104.062C162.469 105.078 162.265 106.336 161.857 107.836C161.464 109.32 160.845 111.367 159.999 113.977L159.591 115.266L160.021 115.453L162.107 111.609C162.394 111.125 162.726 110.531 163.104 109.828C164.071 108.062 164.948 106.555 165.733 105.305C166.519 104.055 167.418 102.961 168.431 102.023C169.459 101.07 170.501 100.594 171.559 100.594C172.088 100.594 172.572 100.805 173.01 101.227C173.448 101.648 173.667 102.133 173.667 102.68C173.667 103.148 173.501 103.555 173.168 103.898C172.851 104.242 172.458 104.523 171.99 104.742C171.536 104.961 170.939 105.219 170.199 105.516C170.018 105.594 169.768 105.695 169.451 105.82C169.134 105.945 168.877 106.062 168.68 106.172C167.864 106.594 166.89 107.578 165.756 109.125C164.623 110.672 163.52 112.375 162.447 114.234C161.389 116.094 160.558 117.688 159.953 119.016C159.455 119.969 158.971 120.672 158.503 121.125C158.034 121.578 157.49 121.805 156.87 121.805C156.462 121.805 156.13 121.625 155.873 121.266C155.631 120.906 155.51 120.344 155.51 119.578C155.51 119.109 155.586 118.602 155.737 118.055C155.888 117.508 156.115 116.797 156.417 115.922C156.417 115.922 156.515 115.617 156.712 115.008C157.634 112.133 158.268 109.875 158.616 108.234C158.979 106.578 159.16 105.383 159.16 104.648C159.16 104.414 159.092 104.172 158.956 103.922C158.82 103.656 158.571 103.523 158.208 103.523C157.709 103.523 157.195 103.773 156.666 104.273C156.153 104.758 155.714 105.266 155.352 105.797C154.989 106.328 154.528 107.055 153.969 107.977L152.745 106.781C153.878 105.062 155.019 103.68 156.168 102.633Z" fill="url(#paint3_linear_13_2)"/>
<path d="M184.797 95.3438C184.449 95.7344 183.981 95.9297 183.391 95.9297C182.953 95.9297 182.507 95.8125 182.054 95.5781C181.616 95.3438 181.253 95 180.966 94.5469C180.679 94.0938 180.535 93.5703 180.535 92.9766C180.535 92.2578 180.724 91.7109 181.102 91.3359C181.495 90.9609 181.994 90.7734 182.598 90.7734C183.278 90.7734 183.875 91.0078 184.389 91.4766C184.918 91.9453 185.228 92.6016 185.318 93.4453C185.318 94.3203 185.144 94.9531 184.797 95.3438ZM183.731 116.602L185.024 114.586L186.497 115.641L185.114 117.727C184.268 118.992 183.369 120.016 182.417 120.797C181.465 121.562 180.384 121.945 179.175 121.945C178.45 121.945 177.815 121.758 177.271 121.383C176.742 120.992 176.327 120.469 176.025 119.812C175.737 119.156 175.594 118.445 175.594 117.68C175.594 116.961 175.685 116.219 175.866 115.453C176.047 114.688 176.312 113.812 176.659 112.828L178.949 106.172C178.979 106.047 179.062 105.781 179.198 105.375C179.334 104.953 179.402 104.562 179.402 104.203C179.402 103.719 179.289 103.336 179.062 103.055C178.85 102.758 178.541 102.609 178.133 102.609C177.725 102.609 177.203 102.938 176.569 103.594C175.949 104.25 174.997 105.492 173.712 107.32L172.534 106.406C173.501 105.062 174.309 104.008 174.959 103.242C175.609 102.461 176.304 101.828 177.045 101.344C177.785 100.859 178.578 100.617 179.425 100.617C181.631 100.617 182.734 101.93 182.734 104.555C182.734 105.664 182.553 106.805 182.19 107.977L179.81 115.547C179.719 115.781 179.636 116.102 179.561 116.508C179.485 116.898 179.447 117.289 179.447 117.68C179.447 118.133 179.53 118.531 179.697 118.875C179.878 119.203 180.203 119.367 180.671 119.367C181.125 119.367 181.601 119.141 182.099 118.688C182.598 118.219 183.142 117.523 183.731 116.602Z" fill="url(#paint4_linear_13_2)"/>
<path d="M205.152 118.758C205.424 119.164 205.832 119.367 206.376 119.367C206.845 119.367 207.306 119.188 207.759 118.828C208.212 118.469 208.658 117.992 209.096 117.398C209.55 116.805 210.169 115.93 210.955 114.773C211.121 114.555 211.371 114.195 211.703 113.695L213.063 114.797C212.897 115.062 212.799 115.211 212.769 115.242C211.877 116.633 211.084 117.781 210.388 118.688C209.693 119.594 208.877 120.375 207.94 121.031C207.019 121.672 206.029 121.992 204.971 121.992C204.034 121.992 203.316 121.648 202.818 120.961C202.334 120.273 202.092 119.281 202.092 117.984C202.092 117.625 202.115 117.242 202.16 116.836C202.206 116.414 202.236 116.148 202.251 116.039C202.281 115.898 202.311 115.688 202.342 115.406C201.646 116.734 200.944 117.867 200.233 118.805C199.523 119.742 198.662 120.5 197.649 121.078C196.637 121.656 195.451 121.945 194.091 121.945C192.806 121.945 191.71 121.5 190.804 120.609C189.897 119.703 189.217 118.586 188.764 117.258C188.325 115.914 188.106 114.586 188.106 113.273C188.106 111.102 188.567 109.047 189.489 107.109C190.426 105.156 191.71 103.586 193.343 102.398C194.975 101.211 196.78 100.617 198.76 100.617C199.44 100.617 200.158 100.805 200.913 101.18C201.669 101.539 202.326 102.078 202.886 102.797C203.46 103.5 203.815 104.352 203.951 105.352C204.268 104.148 204.767 102.195 205.447 99.4922C206.142 96.7734 206.648 94.7969 206.966 93.5625L207.102 93.0469H203.18C202.938 93.0469 202.78 93.0234 202.704 92.9766C202.629 92.9297 202.591 92.8594 202.591 92.7656C202.591 92.5469 202.666 92.2266 202.818 91.8047C202.969 91.3828 203.09 91.1641 203.18 91.1484L209.912 90.3047C210.018 90.2891 210.162 90.2812 210.343 90.2812C210.676 90.2812 210.887 90.3281 210.978 90.4219C211.069 90.5156 211.114 90.7344 211.114 91.0781C211.114 91.4375 211.001 92.0703 210.774 92.9766L205.22 114.562C205.069 115.125 204.948 115.617 204.858 116.039C204.782 116.445 204.744 116.883 204.744 117.352C204.744 117.883 204.88 118.352 205.152 118.758ZM201.933 113.344C202.659 111.609 203.022 110.031 203.022 108.609C203.022 106.797 202.734 105.445 202.16 104.555C201.601 103.664 201.034 103.117 200.46 102.914C199.901 102.695 199.455 102.586 199.123 102.586C197.808 102.586 196.622 103.148 195.564 104.273C194.521 105.383 193.698 106.812 193.093 108.562C192.504 110.312 192.209 112.086 192.209 113.883C192.209 115.367 192.481 116.68 193.025 117.82C193.584 118.945 194.476 119.508 195.7 119.508C196.879 119.508 198.035 118.914 199.168 117.727C200.301 116.523 201.223 115.062 201.933 113.344Z" fill="url(#paint5_linear_13_2)"/>
<path d="M224.034 111.82C224.367 111.43 224.79 111.234 225.304 111.234C225.757 111.234 226.127 111.367 226.414 111.633C226.702 111.883 226.928 112.203 227.094 112.594C227.276 112.984 227.48 113.531 227.706 114.234C228.069 115.391 228.454 116.344 228.863 117.094C229.286 117.844 229.958 118.5 230.88 119.062C231.817 119.609 233.079 119.883 234.665 119.883C236.373 119.883 237.68 119.461 238.587 118.617C239.509 117.758 239.97 116.453 239.97 114.703C239.97 113.781 239.728 112.898 239.244 112.055C238.761 111.195 238.156 110.414 237.431 109.711C236.721 108.992 235.753 108.102 234.529 107.039C233.184 105.898 232.104 104.914 231.288 104.086C230.472 103.258 229.777 102.32 229.203 101.273C228.643 100.227 228.364 99.1172 228.364 97.9453C228.364 96.3828 228.779 95.0859 229.611 94.0547C230.457 93.0078 231.537 92.2422 232.852 91.7578C234.182 91.2578 235.587 91.0078 237.068 91.0078C238.519 91.0078 239.97 91.2578 241.42 91.7578C242.871 92.2578 244.072 93.0391 245.024 94.1016C245.992 95.1484 246.475 96.4453 246.475 97.9922C246.475 98.5234 246.309 98.9844 245.976 99.375C245.644 99.75 245.221 99.9375 244.707 99.9375C244.269 99.9375 243.914 99.8359 243.642 99.6328C243.385 99.4297 243.181 99.1797 243.03 98.8828C242.879 98.5859 242.705 98.1562 242.508 97.5938C242.206 96.7344 241.881 96.0234 241.534 95.4609C241.186 94.8984 240.619 94.4141 239.834 94.0078C239.048 93.6016 237.967 93.3984 236.592 93.3984C235.293 93.3984 234.235 93.7891 233.419 94.5703C232.618 95.3516 232.217 96.4141 232.217 97.7578C232.217 98.6484 232.452 99.5078 232.92 100.336C233.388 101.148 233.97 101.898 234.665 102.586C235.361 103.258 236.313 104.117 237.521 105.164C238.866 106.305 239.954 107.297 240.786 108.141C241.632 108.984 242.342 109.945 242.916 111.023C243.506 112.102 243.8 113.258 243.8 114.492C243.8 116.211 243.377 117.656 242.531 118.828C241.7 119.984 240.589 120.844 239.199 121.406C237.824 121.969 236.32 122.25 234.688 122.25C232.89 122.25 231.129 121.906 229.407 121.219C227.699 120.516 226.294 119.477 225.19 118.102C224.087 116.727 223.536 115.086 223.536 113.18C223.536 112.648 223.702 112.195 224.034 111.82Z" fill="url(#paint6_linear_13_2)"/>
<path d="M270.231 114.82L270.661 114.234L271.885 115.312C270.737 117.078 269.505 118.633 268.191 119.977C266.891 121.32 265.531 121.992 264.11 121.992C263.823 121.992 263.476 121.891 263.068 121.688C262.675 121.484 262.305 121.078 261.957 120.469C261.625 119.844 261.458 118.969 261.458 117.844C261.458 117.562 261.557 116.727 261.753 115.336C259.879 119.742 257.212 121.945 253.751 121.945C252.679 121.945 251.681 121.664 250.759 121.102C249.853 120.523 249.12 119.641 248.561 118.453C248.001 117.25 247.722 115.75 247.722 113.953C247.722 111.719 248.19 109.578 249.127 107.531C250.079 105.469 251.356 103.805 252.958 102.539C254.575 101.258 256.336 100.617 258.24 100.617C259.449 100.617 260.453 100.875 261.254 101.391C262.055 101.906 262.652 102.531 263.045 103.266C263.453 104 263.68 104.695 263.725 105.352L264.632 102.281C264.738 101.953 264.889 101.703 265.085 101.531C265.282 101.344 265.546 101.25 265.879 101.25C266.407 101.25 266.853 101.406 267.216 101.719C267.594 102.031 267.783 102.414 267.783 102.867C267.783 102.961 267.745 103.164 267.669 103.477L265.584 110.484C265.176 111.828 264.851 113.023 264.609 114.07C264.382 115.117 264.269 116.023 264.269 116.789C264.269 117.43 264.375 117.961 264.587 118.383C264.813 118.789 265.176 118.992 265.675 118.992C266.339 118.992 267.042 118.602 267.783 117.82C268.538 117.023 269.354 116.023 270.231 114.82ZM261.594 113.016C262.365 111.203 262.75 109.477 262.75 107.836C262.75 106.977 262.562 106.164 262.184 105.398C261.821 104.617 261.315 103.992 260.665 103.523C260.03 103.055 259.335 102.82 258.58 102.82C257.597 102.82 256.547 103.297 255.429 104.25C254.311 105.203 253.374 106.492 252.618 108.117C251.878 109.727 251.507 111.477 251.507 113.367C251.507 115.305 251.817 116.789 252.437 117.82C253.071 118.852 253.91 119.367 254.953 119.367C256.207 119.367 257.439 118.766 258.648 117.562C259.857 116.344 260.839 114.828 261.594 113.016Z" fill="url(#paint7_linear_13_2)"/>
<path d="M271.523 118.125C271.885 117.828 272.361 117.68 272.951 117.68C273.253 117.68 273.684 117.797 274.243 118.031C274.59 118.156 274.878 118.258 275.104 118.336C275.346 118.398 275.595 118.43 275.852 118.43C276.487 118.43 277.182 118.016 277.938 117.188C278.708 116.359 279.388 115.477 279.978 114.539C280.567 113.602 281.224 112.5 281.95 111.234C281.512 109.859 281.164 108.711 280.907 107.789L280.726 107.133C280.424 105.961 280.068 104.984 279.66 104.203C279.267 103.406 278.723 103.008 278.028 103.008C277.273 103.008 276.661 103.266 276.192 103.781C275.739 104.281 275.301 104.945 274.878 105.773C274.681 106.148 274.538 106.406 274.447 106.547C274.356 106.688 274.258 106.758 274.152 106.758C273.88 106.758 273.601 106.641 273.313 106.406C273.041 106.156 272.905 105.938 272.905 105.75C272.905 105.719 272.921 105.68 272.951 105.633C273.631 104.602 274.243 103.75 274.787 103.078C275.331 102.391 275.966 101.812 276.691 101.344C277.431 100.859 278.232 100.617 279.094 100.617C280.227 100.617 281.172 101.156 281.927 102.234C282.683 103.312 283.249 104.469 283.627 105.703C284.02 106.938 284.217 107.672 284.217 107.906C284.579 107.438 285.274 106.516 286.302 105.141C287.33 103.766 287.987 102.867 288.274 102.445C288.697 101.914 289.234 101.484 289.883 101.156C290.548 100.812 291.228 100.641 291.924 100.641C292.483 100.641 293.049 100.742 293.624 100.945C294.198 101.148 294.674 101.453 295.052 101.859C295.445 102.266 295.641 102.766 295.641 103.359C295.641 103.75 295.46 104.086 295.097 104.367C294.734 104.633 294.319 104.766 293.85 104.766C293.593 104.766 293.163 104.672 292.558 104.484C291.833 104.266 291.251 104.156 290.813 104.156C290.556 104.156 289.982 104.633 289.09 105.586C288.198 106.539 287.299 107.578 286.393 108.703C285.501 109.812 285.055 110.414 285.055 110.508C285.055 110.805 285.252 111.609 285.645 112.922C286.053 114.234 286.287 114.977 286.347 115.148L286.574 115.852L286.755 116.344C286.952 116.922 287.141 117.406 287.322 117.797C287.503 118.172 287.76 118.508 288.093 118.805C288.44 119.102 288.871 119.25 289.385 119.25C290.276 119.25 291.047 118.953 291.697 118.359C292.362 117.766 293.049 116.969 293.76 115.969L294.054 115.57L295.074 116.484C295.089 116.531 295.097 116.578 295.097 116.625C295.097 116.656 295.097 116.68 295.097 116.695C293.404 119.008 291.961 120.461 290.767 121.055C289.589 121.648 288.758 121.945 288.274 121.945C287.246 121.945 286.362 121.484 285.622 120.562C284.881 119.625 284.322 118.656 283.945 117.656C283.567 116.641 283.174 115.422 282.766 114C282.343 114.672 281.61 115.688 280.567 117.047C279.524 118.391 278.655 119.445 277.96 120.211C277.522 120.773 276.94 121.203 276.215 121.5C275.505 121.797 274.726 121.945 273.88 121.945C273.412 121.945 272.951 121.836 272.497 121.617C272.044 121.398 271.674 121.086 271.387 120.68C271.1 120.273 270.956 119.812 270.956 119.297C270.956 118.797 271.145 118.406 271.523 118.125Z" fill="url(#paint8_linear_13_2)"/>
<path d="M307.745 90.8203C307.715 91.2734 307.602 91.9062 307.405 92.7188L304.209 104.742C305.192 103.273 306.302 102.219 307.541 101.578C308.796 100.938 310.042 100.617 311.282 100.617C312.506 100.617 313.601 100.898 314.568 101.461C315.551 102.023 316.321 102.828 316.88 103.875C317.44 104.906 317.719 106.117 317.719 107.508C317.719 110.07 317.152 112.461 316.019 114.68C314.886 116.898 313.375 118.664 311.486 119.977C309.612 121.289 307.617 121.945 305.501 121.945C303.386 121.945 301.716 121.367 300.492 120.211C299.268 119.055 298.656 117.156 298.656 114.516C298.656 113.141 298.822 111.664 299.154 110.086C299.502 108.508 300.182 105.836 301.195 102.07C301.799 99.8828 302.615 96.7891 303.643 92.7891L299.993 92.5547C299.63 92.4922 299.449 92.2578 299.449 91.8516C299.449 91.5547 299.653 91.3203 300.061 91.1484C300.469 90.9609 301.036 90.8125 301.761 90.7031C302.487 90.5781 303.65 90.4141 305.252 90.2109L306.521 90.0469C306.733 90.0156 306.884 90 306.975 90C307.232 90 307.421 90.0625 307.541 90.1875C307.677 90.3125 307.745 90.5234 307.745 90.8203ZM313.004 112.758C313.715 110.852 314.07 109.125 314.07 107.578C314.07 106.703 313.934 105.875 313.662 105.094C313.405 104.312 313.019 103.68 312.506 103.195C311.992 102.695 311.372 102.445 310.647 102.445C308.954 102.445 307.496 103.062 306.272 104.297C305.048 105.516 304.119 107.07 303.484 108.961C302.864 110.836 302.555 112.75 302.555 114.703C302.555 116.5 302.849 117.766 303.439 118.5C304.043 119.219 304.889 119.578 305.977 119.578C307.489 119.578 308.856 118.914 310.08 117.586C311.319 116.258 312.294 114.648 313.004 112.758Z" fill="url(#paint9_linear_13_2)"/>
<path d="M335.264 102.328C335.264 101.188 335.823 100.617 336.941 100.617C337.772 100.617 338.452 100.953 338.981 101.625C339.51 102.281 339.888 103.062 340.115 103.969C340.341 104.859 340.455 105.672 340.455 106.406L340.5 106.359C340.5 109.281 339.457 112.695 337.372 116.602C335.302 120.492 332.755 123.828 329.733 126.609C326.726 129.406 323.922 130.805 321.323 130.805C320.673 130.805 320.001 130.688 319.306 130.453C318.611 130.219 318.029 129.867 317.56 129.398C317.077 128.93 316.835 128.359 316.835 127.688C316.835 127.172 317.084 126.781 317.583 126.516C318.082 126.25 318.686 126.117 319.397 126.117C319.865 126.117 320.515 126.25 321.346 126.516C321.83 126.656 322.23 126.758 322.547 126.82C322.88 126.898 323.205 126.938 323.522 126.938C324.127 126.938 324.671 126.812 325.154 126.562C325.638 126.328 326.227 125.883 326.922 125.227C327.617 124.57 328.637 123.508 329.982 122.039C329.725 121.164 329.189 119.352 328.373 116.602C327.572 113.836 326.915 111.523 326.401 109.664C325.842 107.664 325.335 106.172 324.882 105.188C324.429 104.188 323.998 103.688 323.59 103.688C323.016 103.688 322.457 104.023 321.913 104.695C321.369 105.352 320.794 106.203 320.19 107.25C319.978 107.641 319.82 107.906 319.714 108.047L318.535 107.016C319.366 105.562 320.069 104.414 320.643 103.57C321.233 102.727 321.882 102.023 322.593 101.461C323.318 100.898 324.111 100.617 324.973 100.617C325.683 100.617 326.295 100.93 326.809 101.555C327.323 102.164 327.723 102.945 328.01 103.898L330.322 111.867C331.486 115.961 332.204 118.453 332.476 119.344C332.929 118.672 333.518 117.719 334.244 116.484C334.984 115.234 335.649 113.969 336.239 112.688C336.843 111.406 337.145 110.422 337.145 109.734C337.145 109.047 337.055 108.406 336.873 107.812C336.707 107.219 336.458 106.5 336.125 105.656C335.838 104.906 335.619 104.297 335.468 103.828C335.332 103.344 335.264 102.844 335.264 102.328Z" fill="url(#paint10_linear_13_2)"/>
</g>
<defs>
<filter id="filter0_d_13_2" x="0.5" y="0" width="450" height="240.805" filterUnits="userSpaceOnUse" color-interpolation-filters="sRGB">
<feFlood flood-opacity="0" result="BackgroundImageFix"/>
<feColorMatrix in="SourceAlpha" type="matrix" values="0 0 0 0 0 0 0 0 0 0 0 0 0 0 0 0 0 0 127 0" result="hardAlpha"/>
<feOffset dx="10" dy="10"/>
<feGaussianBlur stdDeviation="50"/>
<feColorMatrix type="matrix" values="0 0 0 0 0 0 0 0 0 0 0 0 0 0 0 0 0 0 0.5 0"/>
<feBlend mode="normal" in2="BackgroundImageFix" result="effect1_dropShadow_13_2"/>
<feBlend mode="normal" in="SourceGraphic" in2="effect1_dropShadow_13_2" result="shape"/>
</filter>
<linearGradient id="paint0_linear_13_2" x1="217.279" y1="199" x2="226.372" y2="56.4477" gradientUnits="userSpaceOnUse">
<stop offset="0.430155" stop-color="#303982"/>
<stop offset="0.872083" stop-color="#49D8FC" stop-opacity="0.71"/>
</linearGradient>
<linearGradient id="paint1_linear_13_2" x1="217.279" y1="199" x2="226.372" y2="56.4477" gradientUnits="userSpaceOnUse">
<stop offset="0.430155" stop-color="#303982"/>
<stop offset="0.872083" stop-color="#49D8FC" stop-opacity="0.71"/>
</linearGradient>
<linearGradient id="paint2_linear_13_2" x1="217.279" y1="199" x2="226.372" y2="56.4477" gradientUnits="userSpaceOnUse">
<stop offset="0.430155" stop-color="#303982"/>
<stop offset="0.872083" stop-color="#49D8FC" stop-opacity="0.71"/>
</linearGradient>
<linearGradient id="paint3_linear_13_2" x1="217.279" y1="199" x2="226.372" y2="56.4477" gradientUnits="userSpaceOnUse">
<stop offset="0.430155" stop-color="#303982"/>
<stop offset="0.872083" stop-color="#49D8FC" stop-opacity="0.71"/>
</linearGradient>
<linearGradient id="paint4_linear_13_2" x1="217.279" y1="199" x2="226.372" y2="56.4477" gradientUnits="userSpaceOnUse">
<stop offset="0.430155" stop-color="#303982"/>
<stop offset="0.872083" stop-color="#49D8FC" stop-opacity="0.71"/>
</linearGradient>
<linearGradient id="paint5_linear_13_2" x1="217.279" y1="199" x2="226.372" y2="56.4477" gradientUnits="userSpaceOnUse">
<stop offset="0.430155" stop-color="#303982"/>
<stop offset="0.872083" stop-color="#49D8FC" stop-opacity="0.71"/>
</linearGradient>
<linearGradient id="paint6_linear_13_2" x1="217.279" y1="199" x2="226.372" y2="56.4477" gradientUnits="userSpaceOnUse">
<stop offset="0.430155" stop-color="#303982"/>
<stop offset="0.872083" stop-color="#49D8FC" stop-opacity="0.71"/>
</linearGradient>
<linearGradient id="paint7_linear_13_2" x1="217.279" y1="199" x2="226.372" y2="56.4477" gradientUnits="userSpaceOnUse">
<stop offset="0.430155" stop-color="#303982"/>
<stop offset="0.872083" stop-color="#49D8FC" stop-opacity="0.71"/>
</linearGradient>
<linearGradient id="paint8_linear_13_2" x1="217.279" y1="199" x2="226.372" y2="56.4477" gradientUnits="userSpaceOnUse">
<stop offset="0.430155" stop-color="#303982"/>
<stop offset="0.872083" stop-color="#49D8FC" stop-opacity="0.71"/>
</linearGradient>
<linearGradient id="paint9_linear_13_2" x1="217.279" y1="199" x2="226.372" y2="56.4477" gradientUnits="userSpaceOnUse">
<stop offset="0.430155" stop-color="#303982"/>
<stop offset="0.872083" stop-color="#49D8FC" stop-opacity="0.71"/>
</linearGradient>
<linearGradient id="paint10_linear_13_2" x1="217.279" y1="199" x2="226.372" y2="56.4477" gradientUnits="userSpaceOnUse">
<stop offset="0.430155" stop-color="#303982"/>
<stop offset="0.872083" stop-color="#49D8FC" stop-opacity="0.71"/>
</linearGradient>
</defs>
</svg>
